<svg xmlns="http://www.w3.org/2000/svg" xmlns:xlink="http://www.w3.org/1999/xlink" width="248" height="87" viewBox="0 0 248 87">
    <defs>
        <path id="a" d="M.935 64h52.33V.113H.935z"/>
    </defs>
    <g fill="none" fill-rule="evenodd">
        <g transform="translate(1 22.618)">
            <mask id="b" fill="#fff">
                <use xlink:href="#a"/>
            </mask>
            <path fill="#FDFDFD" d="M44.877 45.485c.167-.447.32-.859-.014-1.11-.314-.239-.763-.175-1.247.037l1.261 1.073zm5.57-4.312c.003.614-.184 1.3.863 1.282 1.056-.019.821-.743.834-1.33.012-.573.15-1.189-.824-1.208-1.055-.022-.878.637-.874 1.256zm0 8.49c.001.722-.192 1.392.867 1.368.963-.022.841-.633.83-1.208-.015-.587.22-1.31-.834-1.33-1.045-.019-.86.666-.864 1.17zm-46.427.104c.043-.663.142-1.314-.956-1.29-.914.02-1.055.444-1.028 1.191.026.75-.049 1.397 1.09 1.378 1.038-.018.921-.603.894-1.279zm-.003-8.665c.103-.72.024-1.205-.996-1.199-1.08.006-.955.635-.984 1.312-.034.768.072 1.255 1.06 1.258 1.1.004.946-.665.92-1.37zm14.635-.954l.001-.212h-4.009c-1.552.002-1.513.003-1.497 1.594.008.923.335.995 1.078.641 1.464-.7 2.95-1.352 4.427-2.023zm17.148-.203l-.022.314c1.578.556 3.091 1.252 4.58 2.004.315.16.802.337.983 0 .303-.568.102-1.25.113-1.882.006-.383-.282-.434-.577-.434-1.692-.003-3.385-.002-5.077-.002zM8.693 52.558c-.055-.108-.08-.252-.163-.305-.634-.408-1.24-.97-1.936-1.124-.395-.088-.616.738-.868 1.18-.335.586-.588 1.221-.925 1.808-.405.708-.24 1.137.482 1.52 1.353.72 1.385.731 2.076-.659.284-.57.61-1.12.918-1.679.135-.244.273-.485.416-.74zm41.123 2.25c-.394-.814-.72-1.587-1.127-2.314-1.205-2.159-.739-1.71-2.594-.64-.54.311-.594.598-.256 1.124.517.802.962 1.652 1.392 2.503.208.411.314.841.926.548.627-.3 1.3-.528 1.66-1.222zM30.887 42.518c-.078.253.104.531.656.66 1.007.231 2.004.508 2.998.792.414.12.69.053.84-.378.158-.45.327-.897.503-1.34.197-.5-.01-.734-.49-.857-1.119-.286-2.23-.595-3.342-.898-.602-.163-.89.065-.933.684-.024.356-.119.705-.232 1.337zm-18.179 5.632c-.129-.252-.182-.354-.234-.458-.868-1.729-1.535-1.844-2.895-.465-.559.567-1.076 1.175-1.603 1.773-.244.275-.437.511-.074.908 1.155 1.266 1.68 1.294 2.811.072.46-.496.947-.969 1.437-1.435.172-.164.39-.279.558-.395zm10.586-5.658c-.035-.28-.089-.558-.099-.835-.038-1.04-.465-1.395-1.508-1.009-.892.33-1.83.541-2.755.774-.676.17-.822.51-.502 1.123.183.35.308.733.43 1.111.134.413.314.548.785.396 1.021-.327 2.07-.569 3.108-.846.368-.098.712-.214.541-.714zm14.512-.139c-.532.327-.592 1.006-.904 1.506-.36.582-.305.951.386 1.28.892.424 1.731.97 2.567 1.505.373.24.621.265.881-.13.285-.43.613-.832.905-1.257.123-.178.37-.386.084-.605-1.174-.895-2.457-1.606-3.919-2.299zm8.905 7.117c-.209-.289-.333-.496-.492-.67-.617-.675-1.29-1.305-1.858-2.018-.799-1.002-1.332-.79-2.076.131-.592.734-.745 1.151.068 1.781.621.482 1.107 1.14 1.665 1.705.251.255.406.805.924.438.603-.427 1.172-.902 1.77-1.367zm-41.784-5.21c-.675 0-1.354.031-2.028-.007-1.07-.06-.819.711-.852 1.301-.035.633-.028 1.194.895 1.15 1.151-.058 2.311-.079 3.458.007 1.004.075 1.283-.269 1.263-1.259-.018-.904-.21-1.334-1.186-1.207-.508.066-1.033.011-1.55.014zm44.468 0c-.677 0-1.355.03-2.03-.007-.92-.05-.797.595-.75 1.126.045.505-.363 1.306.683 1.306 1.393 0 2.787-.006 4.181.001.445.002.606-.208.67-.64.226-1.526.014-1.787-1.56-1.79-.398 0-.796 0-1.194.003zm-32.97-1.81c-1.398.655-2.723 1.373-3.907 2.324-.185.148-.046.355.038.538.722 1.568 1.277 1.74 2.7.855.472-.293.934-.639 1.451-.815 1.004-.343 1.05-.895.515-1.67-.278-.4-.253-1.007-.798-1.233zm-7.886-.003v-.005c.717 0 1.436-.02 2.152.005 1.085.04.794-.755.817-1.334.023-.579.164-1.23-.826-1.188a38.748 38.748 0 0 1-3.826-.006c-.936-.053-1.224.258-1.245 1.202-.023 1.065.33 1.46 1.374 1.337.511-.06 1.036-.01 1.554-.01zm37.467-2.509c-.72 0-1.442.04-2.158-.01-.847-.06-.914.445-.84 1.057.072.59-.362 1.472.818 1.46 1.28-.012 2.562-.058 3.836.021 1.003.063 1.286-.28 1.284-1.277-.003-.979-.243-1.396-1.263-1.266-.55.071-1.118.013-1.677.015zM4.857 35.903c-.557 0-1.123.062-1.67-.013-1.037-.142-1.187.397-1.158 1.25.026.771-.023 1.424 1.103 1.331 1.148-.094 2.312-.073 3.463-.004.866.052 1.011-.294 1.068-1.087.086-1.196-.264-1.694-1.493-1.488-.426.072-.874.011-1.313.011zm44.42 2.547c.638 0 1.281-.046 1.913.011 1.116.098.958-.664.96-1.33.003-.634.135-1.31-.912-1.243-1.112.071-2.239.093-3.347-.007-1.076-.096-1.343.28-1.327 1.323.014.985.274 1.39 1.28 1.258.47-.063.955-.01 1.433-.012zm-37.019-2.546c-.679 0-1.365.057-2.037-.013-1.113-.116-.965.623-.98 1.301-.019.731-.019 1.346 1.033 1.276a26.14 26.14 0 0 1 3.595.003c1.011.073 1.27-.28 1.283-1.269.016-1.05-.269-1.467-1.337-1.312-.509.074-1.038.013-1.557.014zm7.42.001c-.717 0-1.434.032-2.147-.008-1.038-.059-.768.697-.753 1.223.015.547-.346 1.364.775 1.338 1.43-.035 2.861-.008 4.291-.01.33 0 .59-.029.702-.453.395-1.489-.036-2.09-1.558-2.092-.437 0-.874 0-1.31.002zm14.997 0c-.716 0-1.439.06-2.148-.016-1.015-.105-.885.575-.825 1.146.06.558-.438 1.46.796 1.425a63.988 63.988 0 0 1 4.18.004c.765.028.928-.294.93-.987.004-1.572.036-1.572-1.5-1.574l-1.433.001zm7.39 2.543c.756 0 1.514-.012 2.27.003.96.018.718-.708.673-1.188-.045-.485.451-1.33-.605-1.349-1.553-.029-3.108-.006-4.662-.005-.306 0-.492.082-.58.443-.374 1.542.03 2.098 1.588 2.1.438 0 .877 0 1.315-.004zm-14.988-2.545c-3.289 0-3.315.005-2.75 3.303.2 1.17-.103 2.792.727 3.388.798.574 2.294.175 3.484.204.08.001.16-.002.24.004.445.037.637-.177.696-.613.183-1.343.462-2.676.576-4.024.192-2.258.151-2.262-2.134-2.262h-.839zm.19 8.037c-8.563.262-14.63 4.27-18.617 11.63-.427.788-.179 1.013.61 1.144 2.206.364 4.415.726 6.6 1.201 3.87.841 7.748 1.703 10.885 4.374.427.363.651.051.906-.168 1.388-1.193 3.01-1.948 4.71-2.565 4.08-1.479 8.341-2.16 12.6-2.849 1.577-.256 1.605-.263.83-1.613-4.132-7.179-10.369-10.833-18.525-11.154zm-.289-9.569c7.955 0 15.91-.022 23.865.025 1.09.007 1.331-.339 1.327-1.36a4686.237 4686.237 0 0 1 0-30.462c.003-1.02-.238-1.377-1.326-1.375-15.83.034-31.66.034-47.49 0-1.088-.002-1.332.352-1.329 1.374.034 10.153.033 20.307 0 30.461-.003 1.02.237 1.37 1.327 1.362 7.875-.048 15.75-.025 23.626-.025zM27.145.133c8.278 0 16.556.015 24.833-.02.941-.004 1.29.15 1.287 1.21-.038 16.114-.022 32.23-.029 48.345-.002 4.13-2.717 7.171-6.789 7.816-4.477.71-8.97 1.37-13.28 2.854-2.128.732-4.179 1.605-5.684 3.383-.24.286-.403.427-.732.052-2.377-2.71-5.712-3.502-8.98-4.383-3.23-.87-6.54-1.383-9.84-1.895-4.234-.657-6.953-3.558-6.96-7.802C.937 33.498.965 17.303.934 1.107.933.157 1.34.12 2.073.122 10.43.14 18.788.133 27.145.133z" mask="url(#b)"/>
        </g>
        <path fill="#FDFDFD" d="M48.692 17.638c.28 0 .563-.03.839.005.844.106 1.086-.256 1.099-1.085.014-.921-.235-1.338-1.21-1.221a8.326 8.326 0 0 1-1.678.004c-.92-.078-.916.503-.914 1.148.003.635-.023 1.246.905 1.152.316-.031.639-.005.959-.003zM27.74 3.237v-.01c.879 0 1.758-.002 2.636 0 .385.002.6-.19.629-.568.026-.354.147-.787-.152-1.023-.343-.27-.39.28-.612.355-.605.198-1.254.408-1.694-.293-.401-.64-.81-.775-1.252-.077-.482.76-1.097.647-1.735.289-.18-.101-.195-.492-.51-.39-.357.117-.221.464-.253.723-.083.68.126 1.062.908 1.003.675-.05 1.357-.01 2.035-.01zm-23.506 0v-.014c.88 0 1.76.002 2.639-.001.43-.001.537-.286.519-.643-.017-.345.133-.734-.163-1.021-.135-.131-.28-.02-.4.108-.736.778-1.381.73-2.007-.168-.385-.551-.804-.406-1.121.119-.464.767-1.1.64-1.742.315-.171-.087-.142-.52-.476-.393-.336.127-.214.473-.245.736-.083.717.22 1.02.958.97.677-.045 1.359-.008 2.038-.008zm3.095 12.115c-.4 0-.801.015-1.2-.004-.541-.028-.774.182-.822.75-.113 1.359.01 1.53 1.357 1.539.48.003.965-.041 1.439.01.908.097 1.24-.2 1.257-1.181.019-1.073-.488-1.194-1.311-1.121-.238.02-.48.003-.72.007zm44.249-12.12c.798 0 1.596.003 2.394 0 .332-.001.668-.024.687-.468.016-.394.184-.886-.113-1.151-.418-.373-.41.312-.653.39-.568.187-1.217.387-1.62-.233-.492-.758-.83-.83-1.4-.047-.451.619-1.148.697-1.704.074-.495-.554-.635-.263-.7.23-.093.705-.01 1.285.955 1.218.715-.048 1.435-.008 2.154-.012zm-11.876.005v-.004l2.518-.001c.34 0 .664-.047.663-.492-.001-.393.185-.888-.123-1.15-.397-.34-.432.318-.684.4-.651.215-1.307.398-1.775-.383-.365-.611-.79-.622-1.177 0-.51.82-1.167.662-1.83.259-.176-.108-.214-.478-.53-.321-.263.13-.155.418-.186.645-.098.737.129 1.13.967 1.059.714-.06 1.438-.012 2.157-.012zm-23.537.113v-.028c.877 0 1.754.01 2.63-.005.452-.008.633-.296.599-.718-.031-.38.179-.848-.211-1.112-.383-.26-.478.187-.712.365-.523.397-1.132.438-1.544-.18-.485-.724-.917-.802-1.463-.076-.498.663-1.034.746-1.633.069-.382-.43-.682-.302-.817.249-.24.975.084 1.404 1.116 1.432.678.019 1.357.004 2.035.004zm-5.827 8.904c-1.397 0-2.794.013-4.191-.007-.523-.006-.825.123-.833.722-.01.605.21.872.833.869 2.713-.013 5.428-.013 8.142 0 .62.003.842-.262.833-.867-.01-.6-.308-.731-.832-.724-1.317.02-2.635.007-3.952.007zm11.604 8.479c1.358 0 2.718-.016 4.076.007.567.009.926-.118.924-.777-.003-.64-.341-.816-.913-.814-2.677.009-5.356.009-8.033-.002-.565-.002-.893.137-.893.803-.001.663.3.803.882.792 1.318-.028 2.638-.01 3.957-.01zm.112-8.48c-1.36 0-2.718.02-4.076-.01-.59-.01-.876.146-.875.8.002.673.344.798.902.796 2.678-.01 5.355-.011 8.033-.001.576.002.904-.187.904-.822 0-.665-.373-.778-.932-.77-1.318.022-2.637.007-3.956.007zm23.749 1.583c1.279 0 2.558-.011 3.837.005.599.008.985-.1.975-.846-.01-.703-.386-.75-.924-.747-2.638.012-5.275.014-7.913-.002-.592-.003-1.021.07-1.003.818.019.77.527.774 1.072.773 1.319-.002 2.637-.001 3.956-.001zM33.86 20.732c1.395 0 2.79-.016 4.186.008.557.009.79-.18.78-.757-.007-.524-.13-.833-.725-.831-2.831.009-5.661.009-8.493 0-.6-.002-.711.317-.721.836-.01.582.235.76.786.752 1.395-.024 2.79-.008 4.187-.008zm-.005-8.478c-1.395 0-2.791.017-4.185-.008-.557-.01-.791.179-.783.757.009.523.132.833.727.83 2.83-.008 5.66-.008 8.49 0 .6.003.713-.316.723-.835.01-.582-.235-.76-.786-.752-1.395.024-2.79.008-4.186.008zm7.899-1.413h7.916c-1.237-1.161-1.49-2.773-3.562-2.895-2.355-.14-3.345 1.117-4.354 2.895zm-15.898.037c-.94-2.538-2.762-3.294-5.143-2.814-1.45.293-1.737 1.737-2.688 2.814h7.83zm4.153-.043h7.949c-1.266-1.036-1.395-2.671-3.256-2.853-2.34-.23-3.79.65-4.693 2.853zm-15.947.02C13.165 8.5 11.516 7.622 9.1 8.027c-1.645.275-1.86 1.817-2.963 2.828h7.925zm-4.747 9.878c1.637 0 3.274-.015 4.91.008.573.007.903-.118.9-.783-.002-.651-.324-.812-.895-.811-3.234.01-6.468.009-9.703 0-.567-.002-.896.152-.898.806-.001.66.318.796.895.788 1.597-.024 3.194-.008 4.79-.008zm37.389-.001c1.674 0 3.348-.011 5.022.007.519.004.827-.117.835-.717.009-.598-.198-.877-.824-.874-3.348.01-6.695.009-10.044 0-.561 0-.914.159-.918.803-.004.648.332.796.907.79 1.674-.023 3.348-.008 5.022-.01zM18.484 6.194c.003-1.684.003-1.684-1.702-1.686-.638-.001-1.278.027-1.916-.003-.728-.035-.898.324-1.006.996-.332 2.06 1.077 3.32 2.054 4.784.129.194.344.286.48.053.785-1.337 2.297-2.31 2.09-4.144zm21.207 4.538c.805-1.146 1.57-2.071 2.143-3.102.476-.857.45-1.928.072-2.78-.31-.696-1.224-.26-1.865-.332-.472-.054-.96.03-1.432-.018-.97-.1-1.14.38-1.24 1.255-.24 2.084 1.36 3.2 2.322 4.977zM28.036 4.508c-.28 0-.558-.002-.838 0-1.558.007-1.471.014-1.585 1.622-.13 1.837 1.263 2.842 2.054 4.178.125.21.339.21.483-.001.69-1.02 1.69-1.884 2.027-3.074.612-2.158.102-2.726-2.141-2.725zm23.57 0c-.318 0-.642.036-.954-.007-1.09-.15-1.34.305-1.427 1.384-.16 1.94 1.215 3.02 2.085 4.387.3.473.528.018.696-.21.518-.706 1-1.437 1.52-2.14.72-.974.577-2.134.278-3.087-.221-.708-1.283-.207-1.96-.326-.076-.014-.158-.002-.238-.001zm-47.287 0c-.317 0-.641.036-.953-.007-1.098-.153-1.331.32-1.422 1.389-.152 1.802 1.124 2.8 1.879 4.103.364.63.66.516 1.012-.026.453-.701.95-1.372 1.434-2.053.693-.976.555-2.136.253-3.088-.221-.694-1.286-.203-1.964-.317-.077-.013-.16-.002-.24-.001zm35.648 10.844c-1.357 0-2.715.028-4.071-.011-.817-.023-.91.455-.893 1.073.017.594-.096 1.236.853 1.228 2.714-.023 5.43-.032 8.144.008.975.013.818-.607.848-1.197.032-.672-.033-1.16-.93-1.12-1.314.062-2.633.017-3.951.019zm-23.628-.002c-1.357 0-2.716.044-4.071-.016-.906-.04-.944.467-.92 1.129.023.6-.106 1.2.859 1.187 2.674-.041 5.349-.037 8.024 0 .864.012.967-.444.972-1.126.006-.73-.1-1.233-1.032-1.19-1.275.06-2.555.016-3.832.016zm11.758-.001c-1.314 0-2.631.049-3.942-.018-.9-.045-1.058.362-1.034 1.134.02.7.003 1.212.977 1.192 2.667-.057 5.337-.057 8.004 0 .977.02.95-.498.974-1.194.026-.777-.142-1.177-1.037-1.132-1.311.067-2.628.018-3.942.018zm.002 6.405c-7.998 0-15.997-.035-23.994.036-1.275.01-1.615-.38-1.45-1.531.062-.431.033-.88.006-1.318-.034-.532.112-.862.719-.782.716.094.749-.352.742-.886-.02-1.44-.03-2.88-.008-4.32a1.894 1.894 0 0 0-.398-1.213c-.45-.611-.822-1.29-1.328-1.846C1.195 8.576.617 7.096.882 5.31.96 4.779.832 4.304.407 3.897.062 3.567-.128.904.099.555c.27-.416 1.99-.332 2.328.178.387.582.632.404.972-.016.73-.904 1.06-.897 1.852.068.29.357.609.51.832.07.5-.985 1.365-.545 2-.456.764.108.38.916.406 1.409.045.852.123 1.688-.553 2.469-.28.323-.663 1.39.586 1.44.234.01.398.135.375.363-.125 1.233.77.929 1.433.96.664.034 1.352.085 1.21-.942-.032-.23.124-.364.36-.375 1.463-.064.93-1.051.534-1.544-.89-1.107-.426-2.303-.436-3.45-.006-.568 1.769-.634 2.18-.022.43.643.678.465 1.05-.024.65-.852 1.059-.828 1.795.046.375.444.687.706 1.029-.061.158-.352 1.916-.501 2.19-.24.079.074.15.22.134.316-.18 1.09.454 2.249-.47 3.315-.34.39-.835 1.44.469 1.665.17.029.329.096.33.275.02 1.744 1.479 1.156 2.07.938.66-.243 1.015-1.238 1.703-1.745.127-.093.072-.724-.103-.887-1.076-1-.446-2.263-.6-3.396-.042-.305.072-.588.44-.56.569.046 1.319-.341 1.666.243.478.803.774.64 1.179.023.548-.835 1.149-.785 1.678-.025.412.59.71.817 1.212.086.485-.708 1.257-.355 1.869-.287.623.068.347.72.332 1.098-.035.945.295 1.932-.591 2.79-.264.255-.62 1.493.714 1.449.238-.008.388.149.352.375-.162 1.028.518.95 1.184.947.68-.005 1.436.144 1.283-.967-.032-.233.139-.355.37-.36 1.475-.034.92-1.114.563-1.535-.935-1.102-.312-2.302-.477-3.437-.043-.29.2-.436.465-.403.593.073 1.327-.353 1.75.334.468.76.774.452 1.117-.064.553-.832 1.136-.804 1.68-.014.397.575.722.826 1.215.079.479-.73 1.24-.343 1.85-.283.548.053.33.655.31 1.002-.06.986.319 2.029-.592 2.925-.25.245-.601 1.41.657 1.395.226-.003.355.102.402.34.065.323-.178.833.314.915.583.098 1.195.063 1.79.024.395-.025.309-.392.33-.66.02-.266-.028-.508.363-.633.95-.303 1.153-.892.544-1.616-.903-1.072-.35-2.293-.394-3.44-.018-.45 2.056-.534 2.276-.017.358.84.65.515.97.058.637-.905 1.2-.936 1.804.04.274.44.555.599.93-.035.459-.775 1.296-.33 1.948-.324.687.005.433.665.417 1.037-.044.99.268 2.004-.612 2.92-.35.366-.16 1.308-.11 1.979.069.924-.117 1.73-.744 2.427-.105.117-.15.292-.26.4-2.276 2.232-2.277 5.1-2.275 7.984 0 .72.227 1.065.962.96.839-.116.976.326.984 1.05.03 2.625.052 2.625-2.507 2.625H28.099zM136.541 69.66c.098 3.663.15 7.019.487 10.36.075.736-.048 1.084-.91 1.045-1.557-.07-3.12-.051-4.679-.006-.687.02-.896-.21-.863-.883.136-2.752.214-5.508.35-8.26.09-1.842.085-3.691-.212-5.499-.452-2.753-1.882-3.716-4.638-3.345-.118.016-.235.044-.352.069-3.03.653-3.06.707-3.077 3.778-.022 4.317.133 8.628.48 12.93.071.886-.104 1.285-1.119 1.221-1.514-.095-3.039-.063-4.557-.009-.772.029-.896-.2-.837-.954.407-5.218.74-10.443.421-15.682a102.717 102.717 0 0 0-.39-4.894c-.084-.763.205-1.005.906-1.005 1-.001 2.001.003 2.98-.242.673-.168.88.221 1.072.775.782 2.257.804 2.261 2.86 1.106 1.64-.921 3.338-1.68 5.192-2.051 2.371-.475 4.63.464 5.85 2.545.396.677.656.778 1.335.355 2.032-1.268 4.138-2.385 6.53-2.863 2.746-.55 5.043.598 6.118 3.167a9.876 9.876 0 0 1 .783 3.841c-.004 4.876.1 9.747.698 14.593.13 1.047-.14 1.402-1.236 1.319-1.392-.105-2.799-.071-4.196-.008-.829.037-1.105-.183-1.056-1.058.232-4.07.367-8.144.265-12.222-.006-.24.003-.481-.022-.719-.344-3.375-1.974-4.547-5.285-3.807-2.898.646-2.898.646-2.898 3.592v2.811zM156.49 31.93c.119 3.392.113 6.79.466 10.169.099.948-.065 1.37-1.153 1.293-1.432-.105-2.878-.066-4.315-.012-.776.03-1.037-.175-.972-.995.282-3.544.35-7.1.355-10.654a22.927 22.927 0 0 0-.15-2.748c-.347-2.913-2-4.1-4.914-3.575-.04.006-.077.018-.116.027-2.972.613-3.08.766-3.101 3.768-.032 4.359.16 8.707.477 13.05.065.9-.18 1.185-1.096 1.133a37.42 37.42 0 0 0-4.315.002c-.994.06-1.181-.288-1.097-1.21.436-4.736.642-9.487.472-14.244-.07-1.913-.245-3.824-.442-5.728-.098-.95-.02-1.56 1.179-1.38.505.076 1.04.008 1.555-.052 1.915-.22 1.962-.242 2.525 1.674.3 1.026.585 1.203 1.58.6 2.28-1.381 4.63-2.688 7.424-2.707 1.958-.015 3.527.802 4.477 2.482.542.956.947.83 1.702.348 1.783-1.139 3.66-2.102 5.74-2.596 3.673-.874 6.32.756 7.12 4.436.219 1.006.366 2.052.367 3.079.007 4.716.075 9.429.65 14.115.122.979-.184 1.23-1.121 1.18-1.396-.075-2.8-.07-4.196-.002-.912.046-1.264-.17-1.184-1.166.302-3.785.316-7.584.283-11.38-.007-.796.007-1.588-.187-2.381-.616-2.529-1.968-3.462-4.522-3.06-3.252.511-3.555.874-3.493 4.136.015.799.002 1.599.002 2.398M190.25 81.043c-2.049 0-4.043-.015-6.037.01-.62.007-.62-.36-.582-.781.264-2.827.195-5.666.32-8.498.083-1.88.143-3.764-.218-5.61-.504-2.585-2.144-3.584-4.73-3.021-.039.007-.074.029-.113.039-3.2.737-3.219.737-3.195 3.996.033 4.233.148 8.465.488 12.685.075.923-.153 1.264-1.136 1.205-1.474-.087-2.959-.064-4.435-.005-.799.03-.9-.293-.866-.99.166-3.51.311-7.02.4-10.53.027-1.072-.077-2.16-.249-3.221-.426-2.628-1.999-3.675-4.736-3.24-3.02.48-3.384.885-3.364 3.912.028 4.353.217 8.7.482 13.045.046.75-.11 1.06-.942 1.025a57.867 57.867 0 0 0-4.676 0c-.782.029-.945-.26-.887-.97.24-2.985.495-5.967.504-8.967.013-3.835.074-7.67-.468-11.48-.106-.741.075-1.151.903-1.122.558.02 1.12-.004 1.678-.04 2.126-.131 2.174-.151 2.81 1.91.261.85.5.942 1.245.475 1.963-1.23 4.017-2.274 6.325-2.73 2.481-.492 4.668.382 5.922 2.562.44.767.733.66 1.353.284 2.044-1.242 4.147-2.364 6.531-2.853 2.756-.566 5.097.69 6.143 3.322.524 1.317.743 2.688.752 4.089.031 5.146.14 10.288.778 15.499M74.642 28.281c.133 3.61.24 6.986.386 10.362.056 1.316.188 2.627.31 3.94.049.52-.023.805-.665.795a166.458 166.458 0 0 0-5.996 0c-.734.013-.829-.262-.778-.928.433-5.579.606-11.166.573-16.763-.024-4.079-.322-8.14-.569-12.206-.05-.809.07-1.136.97-1.102a72.47 72.47 0 0 0 5.515-.003c.95-.038 1.011.357.932 1.128-.43 4.173-.398 8.373-.64 12.557-.008.111.034.224.077.47.535-.329.808-.798 1.135-1.217a54.309 54.309 0 0 0 7.184-12.095c.186-.434.306-.847.963-.836 2.513.04 5.028.015 7.666.015-.445 1.061-1.183 1.785-1.79 2.58-2.738 3.584-5.355 7.255-7.97 10.928-.492.694-.478 1.044.209 1.605 1.906 1.561 3.246 3.616 4.608 5.637 2.293 3.408 4.466 6.903 7.305 10.082-.904.247-1.723.12-2.525.13-1.84.021-3.68-.036-5.517.025-.758.026-1.115-.23-1.428-.91-1.922-4.174-4.11-8.194-7.15-11.685-.76-.87-1.547-1.718-2.805-2.509M74.556 68.117c2.49-2.615 4.521-5.326 6.348-8.18.584-.913 1.197-1.287 2.282-1.222 1.658.097 3.326.025 5.15.025-2.137 2.591-4.163 5.031-6.171 7.487-1.634 2-1.597 1.988-.045 4 2.718 3.522 5.11 7.288 8.242 10.814-2.642 0-5.023-.01-7.404.008-.555.004-.615-.437-.784-.768-1.677-3.273-3.489-6.457-5.963-9.214a25.383 25.383 0 0 0-1.08-1.12c-.106-.104-.26-.16-.481-.29-.231.891-.075 1.704-.056 2.522.062 2.676.036 5.354.299 8.021.071.714-.223.875-.879.858a81.908 81.908 0 0 0-4.676.002c-.772.025-1.007-.168-.957-.998.336-5.58.61-11.165.563-16.76-.037-4.475-.096-8.944-.732-13.383-.089-.617-.049-.98.773-1.094 1.65-.226 3.285-.6 4.904-1 .613-.15.778-.059.768.558a689.308 689.308 0 0 0-.097 8.508c-.016 3.661-.004 7.321-.004 11.226M207.135 32.046c.093-.831-.077-1.78-.264-2.717-.548-2.727-2.342-4.341-4.87-4.438-2.694-.105-4.589 1.28-5.304 4.03-.612 2.357-.6 4.75.165 7.076.746 2.267 2.586 3.53 4.887 3.5 2.343-.03 4.116-1.294 4.858-3.547.4-1.215.591-2.478.528-3.904m-16.8.19c.11-4.687 1.594-8.692 6.114-10.795 5.718-2.662 14.511-1.047 16.277 7.477.942 4.543.48 8.934-3.125 12.287-3.487 3.244-7.742 3.59-12.095 2.18-4.113-1.334-6.259-4.443-6.949-8.64-.136-.831-.242-1.658-.223-2.51M95.785 69.954c-.11.92.059 1.866.249 2.805.554 2.731 2.407 4.357 5.019 4.437 2.566.077 4.459-1.383 5.158-4.094.598-2.322.569-4.666-.14-6.964-.695-2.256-2.472-3.524-4.833-3.55-2.371-.027-4.148 1.192-4.916 3.435-.43 1.252-.635 2.551-.537 3.931m5.295 11.812c-6.447-.002-10.886-4.206-11.261-10.72-.201-3.489.374-6.814 2.829-9.481 3.45-3.749 7.837-4.301 12.438-2.945 4.373 1.291 6.62 4.565 7.287 9.028.369 2.466.204 4.871-.623 7.195-1.59 4.465-5.45 6.924-10.67 6.923M241.217 70.352c-.094 3.135.224 6.477.515 9.817.058.678-.053.913-.774.892a88.577 88.577 0 0 0-4.917-.003c-.746.021-.93-.209-.886-.964.228-3.947.43-7.898.337-11.856-.016-.716-.01-1.427-.185-2.14-.562-2.292-1.805-3.26-4.115-3.014-1.433.151-3.01.357-4.017 1.323-.757.727-.232 2.138-.243 3.24-.042 4.114.052 8.228.371 12.334.064.819-.143 1.124-1.018 1.085a62.358 62.358 0 0 0-4.796-.005c-.788.025-.876-.22-.806-.966.644-6.89.852-13.787.035-20.68-.074-.627.117-.809.623-.843 1.193-.085 2.393-.066 3.577-.294.644-.127.624.45.798.827.325.7.236 1.845.904 2.039.52.15 1.303-.603 1.97-.953 1.696-.89 3.411-1.694 5.342-1.995 4.036-.63 6.506 1.25 7.047 5.346.29 2.195.2 4.388.238 6.81M195.141 69.114c.058-2.702-.033-5.695-.453-8.67-.13-.923-.136-1.56 1.151-1.566 1.467-.006 2.948-.214 4.396-.478.854-.155.92.137.878.835-.258 4.271-.277 8.546-.232 12.822.008.732.154 1.433.345 2.12.475 1.7 1.759 2.524 3.765 2.45 1.412-.053 2.734-.476 4.028-1.028.539-.229.671-.578.667-1.115-.039-4.833.055-9.67-.598-14.476-.101-.744.056-1.04.891-1.084a44.379 44.379 0 0 0 4.638-.513c.753-.119.768.185.753.761-.128 4.911-.381 9.825-.064 14.736.126 1.95.322 3.9.625 5.83.166 1.056-.023 1.491-1.146 1.318a4.277 4.277 0 0 0-1.317 0c-1.652.268-2.859-.109-3.16-1.985-.121-.746-.533-.477-.949-.247-1.885 1.041-3.792 2.034-5.908 2.531-.892.21-1.791.434-2.714.325-3.276-.384-4.926-2.185-5.362-5.685-.274-2.193-.21-4.388-.234-6.88M124.992 35.966c-.046-.835-.11-1.67-.13-2.505-.01-.423-.09-.674-.594-.66-1.846.055-3.662.27-5.28 1.233-1.41.836-2.057 2.5-1.61 3.897.377 1.185 1.394 1.695 3.235 1.62.2-.008.4 0 .598-.026 2.79-.362 3.833-1.354 3.781-3.56m-11.62-9.458c-.129-1.271.118-2.53.15-3.797.01-.39.23-.558.553-.68 3.495-1.308 7.06-2.025 10.757-1.012 3.057.838 4.875 3.126 5.274 6.252.28 2.193.218 4.386.216 6.582a31.712 31.712 0 0 0 .261 4.18c.191 1.453.684 1.987 2.165 2.248.555.098.697.338.716.87.065 1.893.076 1.916-1.826 2.316-.979.207-1.972.228-2.972.17-1.365-.08-2.379-.714-2.873-1.975-.313-.8-.573-.8-1.232-.338-2.12 1.489-4.414 2.535-7.083 2.549-2.49.014-4.588-.67-5.695-3.123-1.098-2.431-.523-5.757 1.292-7.585 1.763-1.774 4.037-2.493 6.4-2.97 1.485-.3 2.99-.54 4.512-.496.703.02.87-.253.85-.91-.062-1.936-1.397-3.38-3.43-3.668-2.445-.347-4.753.144-6.999 1.073-.32.132-.6.41-1.036.314M180.987 43.365c-.92 0-1.84-.016-2.76.005-.504.011-.71-.145-.66-.693.374-4.144.271-8.305.407-12.458.047-1.434-.073-2.875-.072-4.312.001-.655-.382-.656-.856-.68-2.286-.115-2.238-.132-2.689-2.33-.205-1 .025-1.466 1.068-1.55.751-.062 1.652-.026 2.198-.426.61-.448.184-1.42.285-2.158.355-2.583 1.025-5.034 3.088-6.807 2.26-1.942 4.993-2.335 7.862-2.192.464.024.616.21.623.654.016 1.158.044 2.317.113 3.472.031.53-.095.69-.655.62-4.603-.584-5.458 2.876-5.333 6.016.021.547.342.534.717.533 1.28-.002 2.56.021 3.84-.007.592-.013.791.134.58.75-.154.445-.177.937-.27 1.406-.403 2.024-.404 2.024-2.51 2.024-2.352 0-2.344 0-2.354 2.401-.02 4.92.208 9.825.695 14.718.075.75-.07 1.107-.919 1.03-.793-.072-1.598-.016-2.398-.016M246.716 25.117c-1.611-.439-3.113-.79-4.687-.727-.61.025-1.2.12-1.757.317-1.874.667-2.193 2.19-.768 3.58.69.671 1.504 1.178 2.322 1.68.918.561 1.81 1.166 2.734 1.717 4.286 2.563 3.07 8.25-.01 10.274-2.33 1.532-4.877 1.864-7.544 1.742-3.478-.16-3.477-.185-4.22-3.59-.304-1.4-.307-1.389 1.066-1.06 1.833.434 3.68.792 5.55.242 2.344-.69 2.717-2.265.923-3.913-1.121-1.03-2.46-1.762-3.72-2.602-2.37-1.582-4.096-3.528-3.448-6.63.67-3.212 2.998-4.779 5.96-5.512 2.08-.515 4.188-.395 6.282.128.599.148.916.353.968.978.093 1.104.225 2.203.349 3.376M109.66 26.657c-4.233-2.023-6.64.817-6.906 5.043-.224 3.55.034 7.103.334 10.642.073.865-.113 1.082-.962 1.043a51.546 51.546 0 0 0-4.551 0c-.862.035-1.184-.144-1.092-1.103.468-4.89.632-9.798.468-14.709-.06-1.79-.24-3.578-.427-5.36-.098-.934-.048-1.592 1.167-1.377.347.061.718.001 1.076-.025 2.12-.148 2.12-.15 2.647 1.954.183.732.362 1.464.547 2.195.029.113.082.22.167.442.913-1.282 1.779-2.52 2.963-3.473 1.387-1.116 2.926-1.574 4.683-1.056.489.144.814.325.68.99-.312 1.557-.525 3.133-.794 4.794M222.748 25.481c1.073-1.472 1.961-2.849 3.33-3.798 1.314-.912 2.715-1.268 4.295-.842.594.161.88.433.761 1.082a164.92 164.92 0 0 0-.714 4.237c-.058.376-.173.43-.54.337-3.997-1.013-6.167.678-6.437 4.945-.23 3.635.097 7.254.292 10.875.046.855-.162 1.094-1.01 1.066-1.867-.059-3.738-.018-5.647-.018.556-6.374.862-12.627.383-18.895a48.767 48.767 0 0 0-.274-2.857c-.08-.597.131-.78.705-.772.917.015 1.835.002 2.737-.226.653-.166 1.017.036 1.156.777.247 1.317.608 2.612.963 4.09M24.784 31.283l.049.224c.303.04.606.112.909.111.29 0 .54-.147.59-.466.02-.138.003-.377-.077-.419-.226-.12-.434.054-.641.157-.273.138-.553.263-.83.393m12.953 9.221c-1.51-1.095-1.51-1.095-2.171-.373.634.33 1.232.713 2.17.373m-19.272.022c.348.091.489.157.63.158.567.007 1.09-.152 1.503-.546.153-.145-.06-.263-.166-.356-.623-.538-.946.247-1.428.338-.135.025-.246.18-.54.406m21.985-.749c-1.14-.32-2.168-1.329-3.573-.542 1.197.656 2.288 1.206 3.573.542m-24.79-.027c1.198.657 2.64.366 3.53-.612-1.28-.535-2.304.275-3.53.612m-3.036-1.305c1.698 1.084 3.369.81 4.356-.596-1.4.171-2.678.694-4.356.596m30.713.013c-1.368.151-2.635-.543-4.173-.584 1.364 1.362 2.95 1.56 4.173.584m-11.836 4.757c-1.066 2.083-1.063 2.078.299 3.063.275.2.557.371.86.151.367-.265.25-.624.072-.955-.393-.727-.791-1.452-1.231-2.259m-3.65 3.46c-1.215 2.227-1.28 4.822-.182 5.53.193-1.784.255-3.504.183-5.53m1.33.051c-.98 1.674-.358 3.514-.642 5.415 1.123-.924 1.367-2.956.643-5.415m17.27-10.373c-1.936.44-3.875-.575-5.703.81 2.57.983 4.493.736 5.703-.81m-30.971.831c-1.872-1.414-3.815-.348-5.722-.775 1.213 1.501 3.25 1.77 5.722.775m27.307-1.753c3.052.751 5.61.331 6.335-1.09-2.068.62-4.337-.572-6.335 1.09m-29.556.021c-1.83-1.636-4.026-.522-6.041-.813 1.818 1.58 3.922 1.232 6.04.813m31.038-1.794c3.425.583 5.684.177 6.23-1.07-2.071.027-4.28-.94-6.23 1.07M5.577 32.572c.97 1.36 4.299 1.823 6.237.971-1.814-1.899-4.03-.862-6.237-.97m27.687 14.342c-.02.194-.063.296-.03.34.45.567 1.997 1.124-.033 1.685-.352.098-.43.632-.153.924.374.396.51-.072.683-.304.529-.71 1.146-.615 1.765-.165.385.281.735.616.885 1.097.13.418.463.653.807.412.43-.302-.076-.505-.224-.732-.208-.323-.593-.538-.604-.978.225-.17.469-.145.696-.079.79.23.89.191 1.04-.445.01-.047.12-.085.19-.1.402-.088.426-.364.232-.616-.253-.33-.57-.187-.83.037-.93.8-1.812.545-2.717-.069-.532-.362-1.007-.859-1.707-1.007M20.03 49.01c.06.701-.277.904-.491 1.173-.188.237-.58.491-.155.764.297.191.753.16.902-.275.208-.606.593-1.033 1.126-1.339.56-.322 1.083-.31 1.418.325.127.241.142.592.51.545a.633.633 0 0 0 .542-.57c.04-.338-.121-.736-.403-.807-1.208-.304-1.144-.702-.18-1.285.187-.114.443-.299.253-.57-.167-.24-.423-.166-.638-.023-.564.376-1.125.758-1.69 1.136-.618.416-1.242.46-1.908.082-1.013-.573-1.938-.259-2.551.833 1.099.037 2.089 1.287 3.265.011m13.497-9.866c.362-.214.68.081 1.02.086.229.004.562.067.492-.3-.145-.768.382-.58.789-.63.924-.114 2.146.437 2.472-1.077.013-.058.21-.115.32-.11 2.082.093 2.644-2.04 4.129-2.82.057-.03.129-.164.117-.178-.727-.786.197-.675.488-.9.208-.164.589-.26.466-.593-.111-.302-.478-.226-.75-.22a66.874 66.874 0 0 0-6.557.452c-.686.08-1.147.437-1.482 1.055-.298.552-.61 1.325-1.265 1.348-1.857.062-1.56 1.198-1.368 2.372.07.428.053.876.042 1.313-.04 1.577.432 1.95 2.049 1.56-.178-.233-.343-.452-.513-.667-.17-.215-.424-.372-.45-.69m-11.728 1.52c.802.163 1.512-.114 2.176-.43.687-.326 1.015-.12 1.264.533.66 1.74.296 3.286-.801 4.721-.183.238-.675.374-.237.852.332.36.61.255.948.103.365-.163.726-.335 1.102-.47.427-.152.834-.566 1.329-.197.75.562 1.238.181 1.699-.424 2.095-2.75 2.758-5.869 1.999-9.175-.51-2.222-.98-4.436-1.29-6.693-.241-1.745-1.904-2.58-3.516-1.845-.476.217-.606.59-.25.947 1.39 1.395 1.013 2.99.593 4.603-.353 1.36-1.244 2.073-2.613 2.282-1.344.207-2.37-.187-2.956-1.463-.36-.782-.994-1.108-1.805-1.17-1.911-.15-3.822-.306-5.735-.43-.455-.03-.94-.057-1.352.262.17.513.639.588 1.017.785.134.07.533.055.28.315-.72.741.193.678.43.903.193.18.7.242.705.37.064 1.76 1.598 1.587 2.634 2.056.177.08.532.077.546.157.293 1.69 1.652.85 2.547 1.09.22.06.653.08.652.103-.07 1.604 1.097.337 1.56.7-.098.596-.823.835-.926 1.514m-17.67-9.52c2.248.827 4.459.26 6.663.232 3.277-.043 6.554.04 9.785.68.83.164 1.42.653 1.835 1.406.5.908 1.969 1.088 2.727.378.645-.604.549-1.052-.301-1.344-.728-.25-1.314-.697-1.875-1.178.312-.552.976-.325 1.293-.844-.908.096-1.817.403-2.777-.444l2.662-.376-.006-.14H22.75c-.285-.409-.005-.605.157-.793a6.635 6.635 0 0 1 3.539-2.12c2.874-.669 4.569.748 4.806 3.72.082 1.031.299 2.053.448 3.08.07.49.28.797.833.835.518.035.946 0 1.174-.563.519-1.28 1.619-1.667 2.864-1.84 4.046-.566 8.105-.609 12.169-.265.893.075 1.769.07 2.599-.249.85-.326.91.115.748.716-.511 1.884-1.911 3.074-3.44 4.086-.493.327-1.014.556-1.378 1.062-.202.282-.505.54-.82.682-2.41 1.084-4.538 2.782-7.22 3.287-1.944.367-3.885.788-5.866.378-.97-.2-1.224.115-.826.96.813 1.723 1.149 3.75 3.086 4.771.548.288.938.42 1.514.026 1.223-.838 3.306.15 3.66 1.598.209.851-.792 1.098-.728 1.917.065.828-.481 1.213-1.365.882-.441-.166-.394.282-.482.497-.212.523-.608.838-1.105 1.034-.881.344-1.365.008-1.366-.94-.001-.892-.053-1.75-.992-2.245-.32.353-.175.7-.13 1.04.147 1.073-.384 1.485-1.39 1.08-1.13-.454-1.778-2.044-1.106-3.25.504-.905.274-1.235-.542-1.576-.356-.148-.642-.465-1.04-.764 0 1.136-.004 2.217.003 3.298.004.757.075 1.511-.461 2.167-1.861 2.28-1.775 2.067-3.893.367-.493-.394-.6-.89-.47-1.499.248-1.167.454-2.34.714-3.702l-1.893.876c-.43.197-.156.457-.05.684.329.7.203 1.421.06 2.117-.173.854-1.23 1.593-1.966 1.411-1.05-.258-.556-1.034-.524-1.655.009-.185-.035-.372-.06-.61-.927.353-1.065 1.107-1.125 1.864-.045.57.257 1.297-.624 1.434-.74.115-1.386-.257-1.697-.894-.28-.574-.45-1.015-1.183-.619-.095.05-.31-.055-.435-.139-.591-.397-1.13-2.959-.752-3.516.782-1.15 2.218-1.478 3.4-.803 1.259.718 1.939-.44 2.657-1.009.75-.596 1.223-1.546 1.8-2.354.285-.395.433-.853.492-1.338.14-1.167-.113-1.352-1.23-1.145-2.923.542-5.735.028-8.49-.988-1.685-.62-3.241-1.548-4.706-2.498-1.921-1.246-3.9-2.545-5.327-4.43-.513-.678-.778-1.46-.663-2.436"/>
        <path fill="#FDFDFD" d="M18.822 34.022c-1.686.294-3.06.301-4.299-.579 1.41-.194 2.872-.807 4.3.58M19.663 35.25c-1.398.325-2.767.51-4.002-.45 1.351.029 2.752-.474 4.002.45M21.265 36.475c-1.437.727-2.528.643-3.647-.297 1.261-.014 2.46-.543 3.647.297M22.235 37.224c-.623.79-1.421.757-2.49.552.909-.498 1.717-.458 2.49-.552M27.724 29.164l-.032-.086.078.008zM37.368 34.007c1.451-1.358 2.894-.844 4.616-.651-1.568 1.023-2.97.827-4.616.65M38.815 36.168c-1.074.812-2.22.91-3.486.34.73-.618.73-.618 3.486-.34M40.59 34.726c-1.202 1.036-2.584.8-3.97.536 1.194-1.109 2.655-.309 3.97-.536M34.168 36.9l2.958.567c-1.173.421-1.968.32-2.958-.568"/>
    </g>
</svg>
