<svg xmlns="http://www.w3.org/2000/svg" viewBox="0 0 536.9 193.8"><defs><style>.cls-1{fill:#4b88f2;}</style></defs><title>Asset 1</title><g id="Layer_2" data-name="Layer 2"><g id="Lager_1-2" data-name="Lager 1"><path d="M67.92,60.88a71.64,71.64,0,0,0-36.7,9.72V15.89s0,0,0-.07A15.71,15.71,0,0,0,15.62,0H0V15.82H0V127.36H0c0,39.83,30.18,66.48,67.9,66.48s67.9-26.64,67.9-66.48S105.64,60.88,67.92,60.88Zm0,104.47c-22.89,0-36.68-18.2-36.68-38s13.79-38,36.68-38,36.68,18.2,36.68,38S90.81,165.35,67.92,165.35Z" style="fill:#4b88f2"/><path d="M463.23,0h-15.6V15.36h-.08V178h0a15.71,15.71,0,0,0,15.6,15.82h15.6s0-7.08,0-15.82h0V17.16c0-.44.07-.89.07-1.34A15.71,15.71,0,0,0,463.23,0Z" style="fill:#4b88f2"/><path d="M521.26,60.88h-15.6V76.7h0V178h0a15.71,15.71,0,0,0,15.6,15.82h15.6V178h0V76.7h0A15.71,15.71,0,0,0,521.26,60.88Z" style="fill:#4b88f2"/><path d="M213,60.88c-37.72,0-67.9,26.65-67.9,66.48s30.18,66.48,67.9,66.48,67.9-26.64,67.9-66.48S250.72,60.88,213,60.88Zm0,104.47c-22.89,0-36.68-18.2-36.68-38s13.79-38,36.68-38,36.68,18.2,36.68,38S235.89,165.35,213,165.35Z" style="fill:#4b88f2"/><path d="M360.11,60.88c-37.72,0-67.9,26.65-67.9,66.48s30.18,66.48,67.9,66.48S428,167.2,428,127.36,397.83,60.88,360.11,60.88Zm0,104.47c-22.89,0-36.68-18.2-36.68-38s13.79-38,36.68-38,36.68,18.2,36.68,38S383,165.35,360.11,165.35Z" style="fill:#4b88f2"/><circle cx="521.26" cy="23.86" r="23.86" style="fill:#4b88f2"/></g></g></svg>