<svg xmlns="http://www.w3.org/2000/svg" viewBox="0 0 28 28"><title>Resurs 2</title><g id="Lager_2" data-name="Lager 2"><g id="Lager_1-2" data-name="Lager 1"><circle cx="14" cy="14" r="14" style="fill:#fff"/><path d="M13,7a2,2,0,0,1,2-2,2,2,0,0,1,2,2,2,2,0,0,1-2,2,2,2,0,0,1-2-2m5.32,13.8a1.19,1.19,0,0,1-.31.58,4.62,4.62,0,0,1-3.29,1.48A7.53,7.53,0,0,1,13,22.76a2.55,2.55,0,0,1-2.09-3c.28-1.77.6-3.52.91-5.28.09-.53.2-1.06.27-1.59a1.68,1.68,0,0,0,0-.59.64.64,0,0,0-.6-.57,4.4,4.4,0,0,1-.57-.06,2.21,2.21,0,0,1-.67-.28.49.49,0,0,1,.11-.86,1.44,1.44,0,0,1,.62-.14c.81,0,1.63,0,2.43,0H15.8a.87.87,0,0,1,1,.87,5.16,5.16,0,0,1-.23,1.67c-.3,1.66-.62,3.3-.91,4.95q-.16.85-.3,1.7a2.76,2.76,0,0,0,0,.53.87.87,0,0,0,1.23.82,3.31,3.31,0,0,0,.62-.28c.19-.09.39-.21.59-.29s.64.09.56.45" style="fill:#899195"/></g></g></svg>