<svg xmlns="http://www.w3.org/2000/svg" xmlns:xlink="http://www.w3.org/1999/xlink" width="31" height="35" viewBox="0 0 31 35">
    <defs>
        <path id="a" d="M31 0H0v35h31V0z"/>
    </defs>
    <g fill="none" fill-rule="evenodd" opacity=".5">
        <mask id="b" fill="#fff">
            <use xlink:href="#a"/>
        </mask>
        <path fill="#1F2F38" d="M28.429 22.882c-2.564 1.423-6.315 1.78-9.479 1.076v2.965c3.164.704 6.915.346 9.479-1.076C30.143 24.896 31 23.647 31 22.4v-2.965c0 1.248-.857 2.495-2.571 3.447m0-4.304c-2.564 1.422-6.315 1.779-9.479 1.075v2.964c3.164.705 6.915.347 9.479-1.075 1.714-.951 2.571-2.2 2.571-3.445V15.13c0 1.247-.857 2.494-2.571 3.447m0-4.304c-2.564 1.423-6.315 1.78-9.479 1.076v2.966c3.164.703 6.915.345 9.479-1.078C30.143 16.288 31 15.04 31 13.793v-2.964c0 1.246-.857 2.493-2.571 3.445m0 12.91c-2.564 1.424-6.315 1.782-9.479 1.077v2.966c3.164.703 6.915.346 9.479-1.077 1.714-.951 2.571-2.2 2.571-3.446v-2.965c0 1.247-.857 2.495-2.571 3.445m0-17.214c-3.432 1.903-8.99 1.903-12.419 0-1.716-.952-2.573-2.2-2.573-3.445v2.964c0 1.247.857 2.495 2.573 3.446 3.429 1.903 8.987 1.903 12.419 0C30.143 11.984 31 10.735 31 9.49V6.525c0 1.245-.857 2.493-2.571 3.445M14.99 22c-3.43 1.903-8.99 1.903-12.417 0C.858 21.048 0 19.801 0 18.555v2.964c0 1.247.858 2.495 2.574 3.446 3.427 1.903 8.987 1.903 12.417 0 1.715-.951 2.572-2.2 2.572-3.446v-2.964c0 1.246-.857 2.493-2.572 3.446M16.01 8.32c3.429 1.904 8.987 1.904 12.419 0 3.428-1.903 3.428-4.99 0-6.892-3.432-1.904-8.99-1.904-12.419 0-3.43 1.903-3.43 4.989 0 6.892M2.574 20.35c3.427 1.904 8.987 1.904 12.417 0 3.429-1.903 3.429-4.99 0-6.892-3.43-1.903-8.99-1.903-12.417 0-3.431 1.903-3.431 4.989 0 6.893m12.417 5.954c-3.43 1.903-8.99 1.903-12.417 0C.858 25.352 0 24.105 0 22.858v2.965c0 1.247.858 2.495 2.574 3.446 3.427 1.903 8.987 1.903 12.417 0 1.715-.951 2.572-2.2 2.572-3.446v-2.965c0 1.247-.857 2.494-2.572 3.447m0 4.303c-3.43 1.903-8.99 1.903-12.417 0C.858 29.656 0 28.409 0 27.16v2.965c0 1.248.858 2.495 2.574 3.446 3.427 1.904 8.987 1.904 12.417 0 1.715-.951 2.572-2.198 2.572-3.446V27.16c0 1.248-.857 2.495-2.572 3.447" mask="url(#b)"/>
    </g>
</svg>
