<svg xmlns="http://www.w3.org/2000/svg" xmlns:xlink="http://www.w3.org/1999/xlink" width="35" height="31" viewBox="0 0 35 31">
    <defs>
        <path id="a" d="M35 0H0v31h35z"/>
    </defs>
    <g fill="none" fill-rule="evenodd">
        <mask id="b" fill="#fff">
            <use xlink:href="#a"/>
        </mask>
        <path fill="#2BA777" d="M28.573 18.963c-1.066 0-1.929-.878-1.929-1.961 0-1.082.863-1.96 1.93-1.96 1.065 0 1.928.878 1.928 1.96 0 1.083-.863 1.96-1.929 1.96zm-22.536-7.06c-.115 0-.23.008-.342.017l1.099-6.248C7.158 3.602 9.11 2.1 11.435 2.1h10.977c2.993 0 5.507 1.944 5.979 4.621l.913 5.2a4.233 4.233 0 0 0-.341-.019H6.037zm.39 7.06c-1.066 0-1.929-.878-1.929-1.961 0-1.082.863-1.96 1.929-1.96 1.064 0 1.928.878 1.928 1.96 0 1.083-.864 1.96-1.928 1.96zM33.06 8.123h-2.325l-.311-1.771C29.778 2.672 26.407 0 22.412 0H11.435C8.107 0 5.3 2.23 4.76 5.304l-.496 2.82H1.939C.868 8.123 0 9.004 0 10.093v.826c0 1.089.868 1.97 1.939 1.97h1.357a4.447 4.447 0 0 0-1.615 3.44v5.38c0 1.374.615 2.602 1.582 3.414v2.888c0 1.65 1.316 2.988 2.94 2.988h.448c1.623 0 2.94-1.338 2.94-2.988v-1.874H25.41v1.874c0 1.65 1.316 2.988 2.94 2.988h.447c1.623 0 2.94-1.338 2.94-2.988v-2.888a4.448 4.448 0 0 0 1.582-3.414v-5.38c0-1.389-.63-2.628-1.615-3.44h1.357c1.071 0 1.939-.881 1.939-1.97v-.826c0-1.089-.868-1.97-1.939-1.97z" mask="url(#b)"/>
    </g>
</svg>
