<svg xmlns="http://www.w3.org/2000/svg" xmlns:xlink="http://www.w3.org/1999/xlink" width="44" height="51" viewBox="0 0 44 51">
    <defs>
        <path id="a" d="M0 0v11h29V0z"/>
        <filter id="c" width="110.5%" height="111.1%" x="-2.6%" y="-2.8%" filterUnits="objectBoundingBox">
            <feOffset dx="1" dy="1" in="SourceAlpha" result="shadowOffsetOuter1"/>
            <feColorMatrix in="shadowOffsetOuter1" result="shadowMatrixOuter1" values="0 0 0 0 0.0901892007 0 0 0 0 0.0874935599 0 0 0 0 0.0874935599 0 0 0 0.5 0"/>
            <feMerge>
                <feMergeNode in="shadowMatrixOuter1"/>
                <feMergeNode in="SourceGraphic"/>
            </feMerge>
        </filter>
        <path id="d" d="M9.5 0H19v18H0V0z"/>
    </defs>
    <g fill="none" fill-rule="evenodd">
        <g transform="translate(10 7)">
            <g opacity=".25" style="mix-blend-mode:multiply" transform="translate(0 28)">
                <mask id="b" fill="#fff">
                    <use xlink:href="#a"/>
                </mask>
                <path fill="#000" d="M28.995 3.64l-.002-.018.005-.067a.14.14 0 0 0-.033-.104C28.46 1.508 22.182 0 14.5 0 6.505 0 0 1.66 0 3.7a.13.13 0 0 0 0 .01.13.13 0 0 0 .005.046c.032.552.53 1.081 1.478 1.574 3.324 2.02 11.334 5.339 11.674 5.48.287.118.793.19 1.338.19s1.051-.072 1.338-.19c.34-.14 8.328-3.448 11.66-5.468C28.494 4.827 29 4.275 29 3.7c0-.02-.002-.04-.005-.06" mask="url(#b)"/>
            </g>
            <path fill="#899195" stroke="#FFF" stroke-width="3" d="M26.998 11.956a1.553 1.553 0 0 0-.028-.347C26.536 5.072 21.122 0 14.5 0 7.609 0 2 5.583 2 12.446c0 .103.002.143.004.187.028 1.858.456 3.64 1.274 5.295 2.866 6.793 9.771 17.958 10.064 18.431a1.357 1.357 0 0 0 2.307 0c.293-.47 7.179-11.597 10.053-18.39A12.278 12.278 0 0 0 27 12.446c0-.068-.002-.135-.004-.202 0-.172.002-.247.002-.288z"/>
            <circle cx="14.5" cy="13.5" r="5.5" fill="#dcdddf"/>
        </g>
        <g filter="url(#c)" transform="translate(3 2)">
            <mask id="e" fill="#fff">
                <use xlink:href="#d"/>
            </mask>
            <path fill="#3693E6" d="M9.753 14.943C9.477 14.808 3 11.576 3 7.37c0-1.303.38-2.413 1.101-3.21A3.462 3.462 0 0 1 6.697 3c1.292 0 2.495.7 3.305 1.878.8-1.141 2-1.818 3.3-1.818.997 0 1.917.4 2.59 1.13C16.618 4.972 17 6.072 17 7.37c0 4.523-6.5 7.46-6.776 7.582a.554.554 0 0 1-.471-.009z" mask="url(#e)"/>
        </g>
    </g>
</svg>
