<?xml version="1.0" encoding="UTF-8"?>
<svg width="54px" height="44px" viewBox="0 0 54 44" version="1.1" xmlns="http://www.w3.org/2000/svg" xmlns:xlink="http://www.w3.org/1999/xlink">
    <!-- Generator: Sketch 51.3 (57544) - http://www.bohemiancoding.com/sketch -->
    <title>Group 2</title>
    <desc>Created with Sketch.</desc>
    <defs></defs>
    <g id="Page-1" stroke="none" stroke-width="1" fill="none" fill-rule="evenodd">
        <g id="Group-2" transform="translate(3.000000, 3.000000)">
            <polyline id="Shape" stroke="#FEFEFE" stroke-width="4.555" stroke-linecap="round" stroke-linejoin="round" transform="translate(5.777000, 19.138500) scale(-1, 1) rotate(-90.000000) translate(-5.777000, -19.138500) " points="1.6385 13.3615 9.9155 19.1385 1.6385 24.9155"></polyline>
            <polyline id="Shape" stroke="#FEFEFE" stroke-width="4.555" stroke-linecap="round" stroke-linejoin="round" transform="translate(42.777000, 18.638500) scale(-1, -1) rotate(-90.000000) translate(-42.777000, -18.638500) " points="39.1385 12.8615 46.4155 18.6385 39.1385 24.4155"></polyline>
            <path d="M43,19 C43,8.50658975 34.4934102,0 24,0 C16.9329462,0 10.7670529,3.85832652 7.49389861,9.58340091" id="Oval-2" stroke="#FFFFFF" stroke-width="5" fill-rule="nonzero"></path>
            <path d="M41,38 C41,27.5065898 32.4934102,19 22,19 C14.9329462,19 8.76705287,22.8583265 5.49389861,28.5834009" id="Oval-2" stroke="#FFFFFF" stroke-width="5" fill-rule="nonzero" transform="translate(23.246949, 28.500000) scale(-1, -1) translate(-23.246949, -28.500000) "></path>
        </g>
    </g>
</svg>