<svg xmlns="http://www.w3.org/2000/svg" width="38" height="35" viewBox="0 0 38 35">
    <g fill="#1F2F38" fill-rule="evenodd">
        <path d="M3.704 19.727c1.79 6.817 8.965 10.86 15.994 9.011 7.055-1.89 11.286-8.917 9.5-15.714-.866-3.302-3.007-6.057-6.028-7.76-3.021-1.701-6.56-2.146-9.964-1.25C6.15 5.903 1.92 12.93 3.704 19.726zm-2.712.713C-1.172 12.198 3.96 3.676 12.44 1.404 16.644.298 20.936.837 24.6 2.901c3.663 2.064 6.26 5.406 7.311 9.41 2.164 8.242-2.967 16.764-11.446 19.036-8.6 2.262-17.3-2.64-19.472-10.907z"/>
        <path d="M34.645 34.795a4.387 4.387 0 0 1-.704.128 4.205 4.205 0 0 1-3.08-.909l-6.227-5.032 1.918-2.275 6.226 5.032c.518.42 1.292.343 1.725-.17a1.185 1.185 0 0 0-.155-1.692l-6.227-5.032 1.918-2.275 6.227 5.032c1.785 1.443 2.025 4.055.535 5.823a4.25 4.25 0 0 1-2.156 1.37l-.704.128"/>
    </g>
</svg>
