<svg xmlns="http://www.w3.org/2000/svg" xmlns:xlink="http://www.w3.org/1999/xlink" width="34" height="34" viewBox="0 0 34 34">
    <defs>
        <path id="a" d="M0 34h34V0H0z"/>
    </defs>
    <g fill="none" fill-rule="evenodd">
        <mask id="b" fill="#fff">
            <use xlink:href="#a"/>
        </mask>
        <path fill="#de5f3b" d="M29.163 19.135a2.192 2.192 0 0 1-2.199 2.185H7.526a2.192 2.192 0 0 1-2.199-2.185V9.791c0-1.206.985-2.184 2.199-2.184h19.438c1.215 0 2.2.978 2.2 2.184v9.344zm-1.858 8.381c-.967 0-1.752-.78-1.752-1.74 0-.963.785-1.742 1.752-1.742.968 0 1.752.78 1.752 1.742 0 .96-.784 1.74-1.752 1.74zm-20.12 0c-.968 0-1.752-.78-1.752-1.74 0-.963.784-1.742 1.752-1.742.967 0 1.753.78 1.753 1.742 0 .96-.786 1.74-1.753 1.74zm5.153-22.065h9.815V2.723h-9.815V5.45zm19.28 1.658V3.804c0-2.1-6.436-3.804-14.372-3.804C9.308 0 2.874 1.703 2.874 3.804v3.838C1.251 7.866 0 9.246 0 10.921v.954c0 1.675 1.25 3.056 2.874 3.279v10.593c0 1.221.56 2.31 1.437 3.033v2.566A2.663 2.663 0 0 0 6.981 34h.408a2.663 2.663 0 0 0 2.67-2.654V29.68h14.372v1.666A2.663 2.663 0 0 0 27.103 34h.405a2.664 2.664 0 0 0 2.672-2.654V28.78a3.918 3.918 0 0 0 1.437-3.033V15.05A3.316 3.316 0 0 0 34 11.875v-.954a3.318 3.318 0 0 0-2.383-3.176V7.11z" mask="url(#b)"/>
    </g>
</svg>
