<svg xmlns="http://www.w3.org/2000/svg" width="13" height="20" viewBox="0 0 13 20">
    <g fill="none" fill-rule="evenodd">
        <path fill="#1F2F38" d="M13 6.463a.872.872 0 0 0-.016-.188C12.76 2.742 9.944 0 6.5 0 2.916 0 0 3.018 0 6.727c0 .056 0 .078.002.102A6.85 6.85 0 0 0 .665 9.69c1.49 3.672 5.08 9.707 5.233 9.963a.7.7 0 0 0 .6.346.7.7 0 0 0 .6-.346c.152-.255 3.733-6.27 5.227-9.941A6.852 6.852 0 0 0 13 6.727l-.002-.109.001-.155z"/>
        <circle cx="6.5" cy="6.5" r="2.5" fill="#FEFEFE"/>
    </g>
</svg>
