<svg xmlns="http://www.w3.org/2000/svg" xmlns:xlink="http://www.w3.org/1999/xlink" width="45" height="35" viewBox="0 0 45 35">
    <defs>
        <path id="a" d="M18.341 8.644v8.3H.561V.344h17.78z"/>
        <path id="c" d="M17.93 16.944H0V.344h17.93z"/>
    </defs>
    <g fill="none" fill-rule="evenodd">
        <path fill="#4a90a6" d="M25.82 6.686c1.868 0 3.385-1.49 3.385-3.34C29.205 1.5 27.688 0 25.82 0c-1.866 0-3.384 1.503-3.384 3.347.001 1.848 1.518 3.34 3.384 3.34M25.87 14.784c-.477.012-.996-.22-1.37-.796l-2.107-3.19a.053.053 0 0 0-.08-.01l-4.32 4.141c-.025.025-.018.064.013.08l4.03 2.055c1.686.78 1.434 2.21 1.434 2.21v8.829c0 .941-.66 1.833-1.625 1.966-1.172.162-2.175-.72-2.175-1.822v-7.154c0-.011-2.366-1.294-7.097-3.846-.846-.455-1.42-1.333-1.42-2.33 0-.688.258-1.317.707-1.787l6.97-6.755c.859-.945 2.069-.794 2.069-.794 1.458 0 2.225 1.232 2.225 1.232l3.6 5.465c.006.01 1.844.014 5.515.012 1.972 0 1.972 2.494 0 2.494h-6.368z"/>
        <g transform="translate(25.82 17.83)">
            <mask id="b" fill="#fff">
                <use xlink:href="#a"/>
            </mask>
            <path fill="#4a90a6" d="M9.451 14.68c-3.569 0-6.464-2.7-6.464-6.038 0-3.332 2.895-6.033 6.464-6.033 3.565 0 6.467 2.701 6.467 6.033 0 3.338-2.902 6.038-6.467 6.038M9.457.345C4.547.345.56 4.055.56 8.643c0 4.59 3.987 8.302 8.897 8.302 4.9 0 8.884-3.712 8.884-8.302 0-4.589-3.984-8.298-8.884-8.298" mask="url(#b)"/>
        </g>
        <g transform="translate(0 17.83)">
            <mask id="d" fill="#fff">
                <use xlink:href="#c"/>
            </mask>
            <path fill="#4a90a6" d="M8.962 14.68c-3.596 0-6.516-2.703-6.514-6.038 0-3.329 2.918-6.032 6.514-6.032 3.6 0 6.526 2.703 6.526 6.032 0 3.335-2.924 6.038-6.526 6.038M8.959.345C4.022.345.001 4.056.001 8.643c0 4.589 4.02 8.302 8.958 8.302 4.957 0 8.972-3.713 8.972-8.302 0-4.588-4.015-8.298-8.972-8.298" mask="url(#d)"/>
        </g>
    </g>
</svg>
