<svg xmlns="http://www.w3.org/2000/svg" xmlns:xlink="http://www.w3.org/1999/xlink" width="70" height="18" viewBox="0 0 18 19">
    <defs>
        <path id="a" d="M0 18h21V0H0z"/>
    </defs>
    <g fill="none" fill-rule="evenodd">
        <g>
            <mask id="b" fill="#fff">
                <use xlink:href="#a"/>
            </mask>
            <path fill="#FEFEFE" d="M6.409 3.45v12.483l-4.636-1.384V2.067L6.41 3.45zm6.409-1.383v12.482l-4.636 1.384V3.45l4.636-1.383zm6.409 1.383v12.483l-4.636-1.384V2.067l4.636 1.383zm1.141-1.5C13.859.014 13.85.013 13.808.007a.834.834 0 0 0-.202 0c-.045.005-.053.006-6.31 1.865L1.14.037A.884.884 0 0 0 0 .882v14.324c0 .392.254.732.632.845l6.404 1.91.047.014.013.001c.137.032.27.03.4 0l6.209-1.85 6.155 1.837a.898.898 0 0 0 .783-.138.885.885 0 0 0 .357-.707V2.794a.877.877 0 0 0-.632-.845z" mask="url(#b)"/>
        </g>
    </g>
</svg>
