<svg xmlns="http://www.w3.org/2000/svg" xmlns:xlink="http://www.w3.org/1999/xlink" width="44" height="50" viewBox="0 0 44 50">
    <defs>
        <path id="a" d="M0 0v15h42V0z"/>
    </defs>
    <g fill="none" fill-rule="evenodd">
        <g opacity=".25" style="mix-blend-mode:multiply" transform="translate(1 35)">
            <mask id="b" fill="#fff">
                <use xlink:href="#a"/>
            </mask>
            <path fill="#000" d="M41.998 8.908c.005-.03-.012-.058-.049-.084C41.22 7.234 32.125 6 21.001 6 9.42 6 0 7.358 0 9.028c0 .024.003.034.007.045.047.452.766.885 2.14 1.288 4.814 1.652 16.416 4.368 16.908 4.483.415.097 1.148.156 1.938.156s1.523-.059 1.938-.156c.49-.115 12.06-2.82 16.887-4.473C41.266 9.95 42 9.498 42 9.028a.22.22 0 0 0-.007-.05.34.34 0 0 1 .005-.07z" mask="url(#b)"/>
        </g>
        <path fill="#FFF" stroke="#FFF" stroke-width="3" d="M6.192 35.041c5.763 6.977 12.979 11.815 13.568 12.3.497.41 1.374.659 2.32.659.945 0 1.822-.249 2.32-.658.587-.484 7.896-5.723 13.675-12.7 1.732-1.776-33.527-1.301-31.883.4z"/>
        <circle cx="22" cy="22" r="22" fill="#FFF"/>
    </g>
</svg>
