<svg xmlns="http://www.w3.org/2000/svg" xmlns:xlink="http://www.w3.org/1999/xlink" width="18" height="19" viewBox="0 0 18 19">
    <defs>
        <path id="a" d="M8.343.311A.84.84 0 0 1 9 0c.257 0 .5.115.658.311l5.734 7.17a.784.784 0 0 1 .234.56c0 .442-.372.803-.83.803h-.012l-1.294-.01 2.984 3.387c.209.238.257.573.122.856a.83.83 0 0 1-.75.47l-1.136.006 3.132 4.17c.184.245.21.568.069.838a.835.835 0 0 1-.74.439H.83a.836.836 0 0 1-.74-.439.782.782 0 0 1 .069-.837l3.133-4.171-1.137-.006a.833.833 0 0 1-.75-.47.782.782 0 0 1 .122-.856l2.984-3.386-1.294.009h-.005a.837.837 0 0 1-.745-.448.784.784 0 0 1 .088-.849L8.343.311zM9 2.117L4.915 7.225l1.4-.01c.328 0 .622.18.759.465.138.286.09.62-.12.862l-3.002 3.405.968.006a.833.833 0 0 1 .736.44.78.78 0 0 1-.069.836l-3.125 4.164h13.076l-3.126-4.164a.785.785 0 0 1-.068-.836.833.833 0 0 1 .736-.44l.968-.006-3.001-3.405a.787.787 0 0 1-.122-.862.85.85 0 0 1 .759-.465l1.401.01L9 2.117z"/>
    </defs>
    <g fill="none" fill-rule="evenodd">
        <mask id="b" fill="#fff">
            <use xlink:href="#a"/>
        </mask>
        <path fill="#FEFEFE" d="M-8 32h35V-7H-8z" mask="url(#b)"/>
    </g>
</svg>
