<svg xmlns="http://www.w3.org/2000/svg" width="21" height="21" viewBox="0 0 21 21">
    <g fill="#FFF" fill-rule="evenodd" opacity=".5">
        <path stroke="#FFF" d="M7.9 2.94c-3.802.74-6.335 4.267-5.652 7.88.686 3.625 4.351 5.985 8.171 5.26l.034-.006c3.801-.739 6.334-4.267 5.65-7.88-.331-1.756-1.364-3.27-2.907-4.264-1.543-.993-3.412-1.347-5.262-.996L7.9 2.94zm2.825 14.53l-.042.008c-4.632.879-9.077-1.983-9.908-6.378-.829-4.382 2.243-8.66 6.853-9.556l.041-.008c2.244-.426 4.51.003 6.382 1.208 1.872 1.205 3.124 3.04 3.527 5.17.828 4.382-2.244 8.66-6.853 9.556z"/>
        <path d="M18.229 20.59a2.807 2.807 0 0 1-.446.05 2.647 2.647 0 0 1-1.885-.684l-3.663-3.346 1.304-1.32 3.663 3.346a.792.792 0 0 0 1.087-.035.72.72 0 0 0-.02-1.045l-3.662-3.346 1.304-1.32 3.663 3.346c1.05.959 1.08 2.574.067 3.6-.385.39-.876.65-1.412.753"/>
    </g>
</svg>
