<svg xmlns="http://www.w3.org/2000/svg" xmlns:xlink="http://www.w3.org/1999/xlink" width="17" height="16" viewBox="0 0 17 16">
    <defs>
        <path id="a" d="M16.779.348V11H0V.348h16.779z"/>
    </defs>
    <g fill="none" fill-rule="evenodd">
        <g transform="translate(0 5)">
            <mask id="b" fill="#fff">
                <use xlink:href="#a"/>
            </mask>
            <path fill="#FFF" stroke="#FFF" stroke-width=".5" d="M15.492 9.75H1.287V5.292h2.625a4.518 4.518 0 0 0 1.459 2.2 4.702 4.702 0 0 0 3.015 1.086 4.7 4.7 0 0 0 3.023-1.085 4.49 4.49 0 0 0 1.455-2.201h2.628V9.75zm1.282-5.158a.585.585 0 0 0-.078-.39L14.588.659a.658.658 0 0 0-.88-.227.615.615 0 0 0-.235.851l1.642 2.759h-2.764v.003a.637.637 0 0 0-.636.528 3.23 3.23 0 0 1-1.142 1.97 3.4 3.4 0 0 1-2.187.782 3.38 3.38 0 0 1-2.176-.782 3.203 3.203 0 0 1-1.135-1.924.638.638 0 0 0-.633-.577H1.668l1.639-2.759a.613.613 0 0 0-.238-.851.655.655 0 0 0-.877.227L.087 4.203a.568.568 0 0 0-.082.39C0 4.611 0 4.637 0 4.664v5.709c0 .346.285.627.646.627h15.49c.354 0 .646-.28.646-.627v-5.71c0-.026 0-.052-.007-.072z" mask="url(#b)"/>
        </g>
        <path fill="#FFF" stroke="#FFF" stroke-width=".5" d="M6.025 4.781l1.874-1.806v7.442c0 .322.27.583.6.583.335 0 .605-.26.605-.583V2.975l1.868 1.806c.115.11.264.172.423.172a.608.608 0 0 0 .427-.169.546.546 0 0 0 .178-.41.55.55 0 0 0-.175-.406L8.933 1.175l-.188-.132L8.509 1l-.245.05-3.086 2.915A.565.565 0 0 0 5 4.376c0 .15.064.295.175.405a.608.608 0 0 0 .85 0z"/>
    </g>
</svg>
