<svg xmlns="http://www.w3.org/2000/svg" width="27" height="27" viewBox="0 0 27 27">
    <g fill="none" fill-rule="evenodd">
        <circle cx="13.5" cy="13.5" r="13.5" fill="#FFF" opacity=".5"/>
        <g fill="#1F2F38">
            <path d="M12.069 7.212A2.204 2.204 0 0 1 14.25 5c1.228 0 2.192.964 2.192 2.202a2.2 2.2 0 0 1-2.151 2.222c-1.208.01-2.202-.985-2.222-2.212M17.396 19.773c-.03.182-.142.375-.274.518-.801.822-1.766 1.309-2.922 1.329-.518.01-1.055.03-1.553-.081-1.319-.274-2.07-1.4-1.857-2.72.254-1.592.538-3.165.812-4.748.081-.477.183-.954.244-1.43.03-.173.01-.366-.02-.529-.062-.324-.224-.466-.538-.517-.173-.02-.345-.01-.508-.05-.203-.061-.436-.133-.598-.254-.285-.213-.223-.63.101-.772.162-.08.365-.121.548-.121.72-.01 1.451 0 2.161 0h2.161c.518 0 .782.264.853.781.07.518-.112 1.005-.203 1.502-.264 1.491-.548 2.973-.812 4.454a69.375 69.375 0 0 0-.264 1.532 2.5 2.5 0 0 0 0 .477c.092.66.467.903 1.096.74.193-.05.365-.161.548-.253.172-.081.345-.193.528-.264.314-.122.568.082.497.406"/>
        </g>
    </g>
</svg>
