<svg id="Lager_1" data-name="Lager 1" xmlns="http://www.w3.org/2000/svg" viewBox="0 0 18.5 16.5"><title>icon_save_heart_filled</title><path d="M16.53,3.54A4.84,4.84,0,0,1,17.6,6.83c0,4.53-6.14,7.92-7.59,8.66C8.56,14.69,2.4,11,2.4,6.83A5,5,0,0,1,3.47,3.49,3,3,0,0,1,5.75,2.42a4.1,4.1,0,0,1,3.6,2.85.71.71,0,0,0,1.3,0,4.06,4.06,0,0,1,3.6-2.77A3,3,0,0,1,16.53,3.54Z" transform="translate(-0.75 -0.75)" style="fill:#3693e6"/><path d="M19,6.83c0,6-8.36,9.94-8.71,10.11a.7.7,0,0,1-.61,0C9.33,16.74,1,12.43,1,6.83A6.37,6.37,0,0,1,2.42,2.55,4.37,4.37,0,0,1,5.75,1,5.17,5.17,0,0,1,10,3.5a5.16,5.16,0,0,1,4.25-2.42,4.4,4.4,0,0,1,3.33,1.51A6.24,6.24,0,0,1,19,6.83ZM14.25,2.5a4.06,4.06,0,0,0-3.6,2.77.71.71,0,0,1-1.3,0,4.1,4.1,0,0,0-3.6-2.85A3,3,0,0,0,3.47,3.49,5,5,0,0,0,2.4,6.83C2.4,11,8.56,14.69,10,15.49c1.45-.74,7.59-4.13,7.59-8.66a4.84,4.84,0,0,0-1.07-3.29A3,3,0,0,0,14.25,2.5Z" transform="translate(-0.75 -0.75)" style="fill:#3693e6"/><path d="M5.75,2.42A3,3,0,0,0,3.47,3.49,5,5,0,0,0,2.4,6.83C2.4,11,8.56,14.69,10,15.49c1.45-.74,7.59-4.13,7.59-8.66a4.84,4.84,0,0,0-1.07-3.29,3,3,0,0,0-2.28-1,4.06,4.06,0,0,0-3.6,2.77.71.71,0,0,1-1.3,0A4.1,4.1,0,0,0,5.75,2.42Z" transform="translate(-0.75 -0.75)" style="fill:none;stroke:#3693e6;stroke-width:0.5px"/><path d="M10,17a.72.72,0,0,1-.32-.08C9.33,16.74,1,12.43,1,6.83A6.37,6.37,0,0,1,2.42,2.55,4.37,4.37,0,0,1,5.75,1,5.17,5.17,0,0,1,10,3.5a5.16,5.16,0,0,1,4.25-2.42,4.4,4.4,0,0,1,3.33,1.51A6.24,6.24,0,0,1,19,6.83c0,6-8.36,9.94-8.71,10.11A.72.72,0,0,1,10,17Z" transform="translate(-0.75 -0.75)" style="fill:none;stroke:#3693e6;stroke-width:0.5px"/></svg>