<svg xmlns="http://www.w3.org/2000/svg" xmlns:xlink="http://www.w3.org/1999/xlink" width="35" height="29" viewBox="0 0 35 29">
    <defs>
        <path id="a" d="M14.344 7.272v6.983H.438V.29h13.906z"/>
        <path id="c" d="M13.906 14.255H0V.29h13.906z"/>
    </defs>
    <g fill="none" fill-rule="evenodd">
        <path fill="#fff" d="M20.5 5C21.88 5 23 3.885 23 2.503 23 1.122 21.88 0 20.5 0A2.505 2.505 0 0 0 18 2.503 2.499 2.499 0 0 0 20.5 5M20.088 11.515c-.36.01-.75-.18-1.033-.65l-1.587-2.602a.038.038 0 0 0-.06-.007l-3.255 3.378a.042.042 0 0 0 .01.065l3.036 1.676c1.27.636 1.08 1.803 1.08 1.803v7.202c0 .768-.497 1.496-1.224 1.604-.883.132-1.64-.588-1.64-1.486v-5.836a.04.04 0 0 0-.02-.035l-5.326-3.103A2.195 2.195 0 0 1 9 11.624c0-.561.193-1.074.532-1.458l5.25-5.51c.648-.772 1.56-.649 1.56-.649 1.098 0 1.676 1.006 1.676 1.006L20.73 9.47c.007.012.02.019.033.019l4.123-.01a1.021 1.021 0 0 1 0 2.035h-4.798z"/>
        <g transform="translate(20 14)">
            <mask id="b" fill="#fff">
                <use xlink:href="#a"/>
            </mask>
            <path fill="#fff" d="M7.392 12.35c-2.792 0-5.056-2.272-5.056-5.08 0-2.803 2.264-5.075 5.056-5.075 2.788 0 5.057 2.272 5.057 5.075 0 2.808-2.27 5.08-5.057 5.08M7.396.29C3.556.29.438 3.41.438 7.27c0 3.862 3.118 6.984 6.958 6.984 3.832 0 6.948-3.123 6.948-6.984 0-3.86-3.116-6.981-6.948-6.981" mask="url(#b)"/>
        </g>
        <g transform="translate(0 14)">
            <mask id="d" fill="#fff">
                <use xlink:href="#c"/>
            </mask>
            <path fill="#fff" d="M6.95 12.35c-2.788 0-5.053-2.274-5.052-5.08 0-2.8 2.264-5.074 5.052-5.074 2.793 0 5.062 2.274 5.062 5.074 0 2.806-2.268 5.08-5.062 5.08M6.95.29C3.119.29 0 3.413 0 7.27c0 3.86 3.12 6.984 6.949 6.984 3.844 0 6.957-3.124 6.957-6.984S10.793.29 6.95.29" mask="url(#d)"/>
        </g>
    </g>
</svg>
