<svg xmlns="http://www.w3.org/2000/svg" width="16" height="27" viewBox="0 0 16 27">
    <path fill="#fff" fill-rule="evenodd" d="M3.4 8.835a1.082 1.082 0 0 0-.37.364L.168 13.844a1.162 1.162 0 0 0 .35 1.566c.509.33 1.185.182 1.518-.329l2.739-4.444 1.362-.933v5.198c0 .565.225 1.078.586 1.45l4.082 4.191 2.205 5.471c.327.812 1.243 1.201 2.032.865.787-.335 1.169-1.28.842-2.088l-2.326-5.77a1.574 1.574 0 0 0-.362-.538l-3.06-3.145V8.053c0-1.125-.906-2.053-2-2.053-.412 0-.8.132-1.119.356L3.4 8.835zm7.6 4.19l1.914 1.67c.473.41 1.255.406 1.728-.007.477-.415.477-1.096 0-1.513L11 10v3.024zm-4 6.297L2.722 26.29a1.45 1.45 0 0 1-2.033.477 1.549 1.549 0 0 1-.462-2.096L4.938 17c.147.28.331.538.555.768L7 19.322zm4-16.821a2.5 2.5 0 1 1-5-.002 2.5 2.5 0 0 1 5 .002z"/>
</svg>
