<svg xmlns="http://www.w3.org/2000/svg" xmlns:xlink="http://www.w3.org/1999/xlink" width="30" height="30" viewBox="0 0 30 30">
    <defs>
        <path id="a" d="M0 30h30V0H0z"/>
    </defs>
    <g fill="none" fill-rule="evenodd">
        <mask id="b" fill="#fff">
            <use xlink:href="#a"/>
        </mask>
        <path fill="#899195" d="M25.732 16.884a1.934 1.934 0 0 1-1.94 1.928H6.641a1.934 1.934 0 0 1-1.94-1.928V8.639c0-1.064.868-1.927 1.94-1.927h17.151c1.071 0 1.94.863 1.94 1.927v8.245zm-1.64 7.395a1.541 1.541 0 0 1-1.546-1.536c0-.849.693-1.536 1.547-1.536a1.54 1.54 0 0 1 1.546 1.536 1.54 1.54 0 0 1-1.546 1.536zm-17.752 0a1.54 1.54 0 0 1-1.546-1.536 1.54 1.54 0 0 1 1.546-1.536c.853 0 1.546.687 1.546 1.536 0 .848-.693 1.536-1.546 1.536zm4.547-19.47h8.66V2.404h-8.66V4.81zm17.01 1.464V3.357C27.897 1.503 22.22 0 15.217 0 8.213 0 2.536 1.503 2.536 3.357v3.386A2.928 2.928 0 0 0 0 9.636v.842a2.928 2.928 0 0 0 2.536 2.893v9.347c0 1.078.494 2.039 1.268 2.676v2.264A2.35 2.35 0 0 0 6.16 30h.36a2.35 2.35 0 0 0 2.356-2.342v-1.47h12.68v1.47A2.35 2.35 0 0 0 23.915 30h.358a2.35 2.35 0 0 0 2.357-2.342v-2.264a3.457 3.457 0 0 0 1.268-2.676V13.28A2.926 2.926 0 0 0 30 10.478v-.842a2.927 2.927 0 0 0-2.103-2.802v-.56z" mask="url(#b)"/>
    </g>
</svg>
