<svg xmlns="http://www.w3.org/2000/svg" xmlns:xlink="http://www.w3.org/1999/xlink" width="37" height="32" viewBox="0 0 37 32">
    <defs>
        <path id="a" d="M37 0v32H0V0h37z"/>
    </defs>
    <g fill="none" fill-rule="evenodd">
        <mask id="b" fill="#fff">
            <use xlink:href="#a"/>
        </mask>
        <path fill="#1F2F38" d="M9.77 2.846c-1.797 0-3.465.757-4.697 2.132-1.43 1.597-2.187 3.905-2.187 6.674 0 8.398 12.664 15.724 15.64 17.328 2.983-1.478 15.588-8.263 15.588-17.328 0-2.741-.754-5.014-2.182-6.572a6.311 6.311 0 0 0-4.704-2.074c-3.092 0-5.927 2.117-7.4 5.525a1.444 1.444 0 0 1-1.326.865H18.5c-.577 0-1.099-.34-1.326-.863-1.55-3.56-4.318-5.687-7.405-5.687M18.495 32c-.222 0-.444-.05-.648-.15C17.118 31.486 0 22.87 0 11.651 0 8.18 1.006 5.22 2.91 3.093 4.699 1.1 7.135 0 9.77 0c3.415 0 6.594 1.866 8.735 5.007C20.62 1.965 23.79.16 27.228.16a9.182 9.182 0 0 1 6.845 3.012c1.915 2.09 2.928 5.022 2.927 8.48 0 12.063-17.177 19.893-17.908 20.22-.19.086-.393.128-.597.128" mask="url(#b)"/>
    </g>
</svg>
