<svg xmlns="http://www.w3.org/2000/svg" width="20" height="34" viewBox="0 0 20 34">
    <path fill="#de5f3b" fill-rule="evenodd" d="M4.25 11.453a1.348 1.348 0 0 0-.461.452L.209 17.67a1.436 1.436 0 0 0 .437 1.945c.636.41 1.481.225 1.898-.41l3.423-5.516 1.703-1.157v6.452c0 .7.28 1.337.733 1.8l5.102 5.201 2.756 6.791c.409 1.008 1.553 1.491 2.54 1.074.984-.416 1.461-1.588 1.053-2.591l-2.908-7.162a1.953 1.953 0 0 0-.452-.67l-3.825-3.902v-9.042c0-1.397-1.132-2.549-2.5-2.549-.516 0-1 .163-1.399.442l-4.52 3.077zm10.086 5.764l2.166 2.212c.535.543 1.42.538 1.955-.009a1.44 1.44 0 0 0 0-2.003l-4.12-4.205v4.005zm-5.128 6.79l-5.627 9.07a1.92 1.92 0 0 1-2.675.62A2.003 2.003 0 0 1 .3 30.97l6.197-9.983c.192.363.435.7.73 1l1.982 2.022zm4.016-20.89c0 1.72-1.368 3.116-3.055 3.116-1.688 0-3.056-1.395-3.056-3.115C7.113 1.395 8.481 0 10.17 0c1.687 0 3.055 1.395 3.055 3.118z"/>
</svg>
