<svg xmlns="http://www.w3.org/2000/svg" width="38" height="35" viewBox="0 0 38 35">
    <g fill="#FEFEFE" fill-rule="evenodd">
        <path d="M13.143 4.03C6.15 5.904 1.92 12.93 3.704 19.727c1.79 6.817 8.965 10.86 15.994 9.011l.062-.017c6.993-1.872 11.224-8.9 9.439-15.697-.867-3.302-3.008-6.057-6.029-7.76-3.021-1.701-6.56-2.146-9.964-1.25l-.063.016zm7.321 27.317l-.076.02C11.864 33.61 3.164 28.708.992 20.44-1.172 12.198 3.96 3.676 12.44 1.404l.076-.02C16.645.298 20.935.837 24.599 2.9c3.663 2.064 6.26 5.406 7.311 9.41 2.164 8.242-2.967 16.764-11.446 19.036z"/>
        <path d="M34.645 34.795a4.387 4.387 0 0 1-.704.128 4.205 4.205 0 0 1-3.08-.909l-6.227-5.032 1.918-2.275 6.226 5.032c.518.42 1.292.343 1.725-.17a1.185 1.185 0 0 0-.155-1.692l-6.227-5.032 1.918-2.275 6.227 5.032c1.785 1.443 2.025 4.055.535 5.823a4.25 4.25 0 0 1-2.156 1.37"/>
    </g>
</svg>
