<svg xmlns="http://www.w3.org/2000/svg" xmlns:xlink="http://www.w3.org/1999/xlink" width="29" height="41" viewBox="0 0 29 41">
    <defs>
        <path id="a" d="M0 0v11h29V0z"/>
    </defs>
    <g fill="none" fill-rule="evenodd" opacity=".5" transform="translate(0 2)">
        <g opacity=".25" style="mix-blend-mode:multiply" transform="translate(0 28)">
            <mask id="b" fill="#fff">
                <use xlink:href="#a"/>
            </mask>
            <path fill="#000" d="M28.995 3.64l-.002-.018.005-.067a.14.14 0 0 0-.033-.104C28.46 1.508 22.182 0 14.5 0 6.505 0 0 1.66 0 3.7a.13.13 0 0 0 0 .01.13.13 0 0 0 .005.046c.032.552.53 1.081 1.478 1.574 3.324 2.02 11.334 5.339 11.674 5.48.287.118.793.19 1.338.19s1.051-.072 1.338-.19c.34-.14 8.328-3.448 11.66-5.468C28.494 4.827 29 4.275 29 3.7c0-.02-.002-.04-.005-.06" mask="url(#b)"/>
        </g>
        <path fill="#2BA777" stroke="#FFF" stroke-width="3" d="M26.998 11.956a1.553 1.553 0 0 0-.028-.347C26.536 5.072 21.122 0 14.5 0 7.609 0 2 5.583 2 12.446c0 .103.002.143.004.187.028 1.858.456 3.64 1.274 5.295 2.866 6.793 9.771 17.958 10.064 18.431a1.357 1.357 0 0 0 2.307 0c.293-.47 7.179-11.597 10.053-18.39A12.278 12.278 0 0 0 27 12.446c0-.068-.002-.135-.004-.202 0-.172.002-.247.002-.288z"/>
        <circle cx="14.5" cy="13.5" r="5.5" fill="#BEEAAE"/>
    </g>
</svg>
