<svg xmlns="http://www.w3.org/2000/svg" xmlns:xlink="http://www.w3.org/1999/xlink" width="34" height="47" viewBox="0 0 34 47">
    <defs>
        <path id="a" d="M0 0v13.5h34V0z"/>
    </defs>
    <g fill="none" fill-rule="evenodd" transform="translate(0 2)">
        <g opacity=".4" style="mix-blend-mode:multiply" transform="translate(0 31.5)">
            <mask id="b" fill="#fff">
                <use xlink:href="#a"/>
            </mask>
            <path fill="#000" d="M33.994 4.468l-.002-.022a1.8 1.8 0 0 1 .006-.083.177.177 0 0 0-.04-.127C33.369 1.85 26.007 0 17.002 0 7.627 0 0 2.037 0 4.541v.012a.167.167 0 0 0 .006.057c.037.677.62 1.327 1.732 1.931 3.897 2.479 13.29 6.552 13.688 6.725.336.145.929.234 1.568.234.64 0 1.233-.089 1.569-.234.398-.172 9.763-4.231 13.67-6.71C33.407 5.925 34 5.247 34 4.54a.596.596 0 0 0-.006-.073" mask="url(#b)"/>
        </g>
        <path fill="#899195" stroke="#FFF" stroke-width="3" d="M30.708 13.45a1.791 1.791 0 0 0-.031-.39C30.2 5.706 24.263 0 17 0 9.44 0 3.29 6.281 3.29 14.001c0 .117.001.161.004.211a14.1 14.1 0 0 0 1.397 5.957C7.835 27.81 15.409 40.372 15.73 40.904c.271.448.75.721 1.265.721a1.48 1.48 0 0 0 1.265-.72c.321-.53 7.874-13.048 11.026-20.69A14.104 14.104 0 0 0 30.71 14c0-.076-.003-.15-.005-.226 0-.194.002-.278.003-.325z"/>
        <ellipse cx="17" cy="15.188" fill="#FFF" opacity=".7" rx="6.032" ry="6.188"/>
    </g>
</svg>
