<svg xmlns="http://www.w3.org/2000/svg" xmlns:xlink="http://www.w3.org/1999/xlink" width="36" height="30" viewBox="0 0 36 30">
    <defs>
        <path id="a" d="M15.13 7.653V15H.462V.305H15.13z"/>
        <path id="c" d="M13.507 15H0V.305h13.507z"/>
    </defs>
    <g fill="none" fill-rule="evenodd" opacity=".5">
        <path fill="#1F2F38" d="M20.681 5.357a2.663 2.663 0 0 0 2.652-2.676C23.333 1.202 22.145 0 20.681 0c-1.461 0-2.65 1.204-2.65 2.681 0 1.481 1.189 2.676 2.65 2.676"/>
        <path fill="#1F2F38" d="M21.305 11.532c-.382.01-.796-.173-1.095-.626l-1.683-2.51c-.014-.02-.045-.024-.064-.007l-3.452 3.258c-.02.019-.015.05.01.062l3.22 1.616c1.347.614 1.146 1.74 1.146 1.74v6.944c0 .741-.528 1.443-1.298 1.547-.937.128-1.739-.567-1.739-1.433v-5.628a.038.038 0 0 0-.021-.034l-5.65-2.992c-.676-.357-1.134-1.048-1.134-1.832a2 2 0 0 1 .565-1.406l5.569-5.314c.687-.743 1.653-.624 1.653-.624 1.165 0 1.778.97 1.778.97l2.877 4.298a.042.042 0 0 0 .035.019l4.372-.01c1.576 0 1.576 1.962 0 1.962h-5.089z"/>
        <g transform="translate(20.09 15)">
            <mask id="b" fill="#fff">
                <use xlink:href="#a"/>
            </mask>
            <path fill="#1F2F38" d="M7.796 12.996A5.338 5.338 0 0 1 2.464 7.65c0-2.949 2.388-5.34 5.332-5.34a5.341 5.341 0 0 1 5.335 5.34 5.342 5.342 0 0 1-5.335 5.346M7.801.306A7.341 7.341 0 0 0 .462 7.65a7.342 7.342 0 0 0 7.34 7.35c4.04 0 7.328-3.287 7.328-7.35C15.13 3.59 11.843.305 7.8.305" mask="url(#b)"/>
        </g>
        <g transform="translate(0 15)">
            <mask id="d" fill="#fff">
                <use xlink:href="#c"/>
            </mask>
            <path fill="#1F2F38" d="M6.75 12.996c-2.708 0-4.907-2.393-4.906-5.346 0-2.946 2.198-5.34 4.906-5.34 2.712 0 4.917 2.394 4.917 5.34 0 2.953-2.203 5.346-4.917 5.346M6.75.306C3.029.305 0 3.59 0 7.65c0 4.063 3.03 7.35 6.749 7.35 3.734 0 6.758-3.287 6.758-7.35 0-4.06-3.024-7.346-6.758-7.346" mask="url(#d)"/>
        </g>
    </g>
</svg>
