<svg xmlns="http://www.w3.org/2000/svg" xmlns:xlink="http://www.w3.org/1999/xlink" width="22" height="17" viewBox="0 0 22 17">
    <defs>
        <path id="a" d="M0 15.956h21.058V0H0z"/>
    </defs>
    <g fill="none" fill-rule="evenodd" transform="translate(.13 .678)">
        <mask id="b" fill="#fff">
            <use xlink:href="#a"/>
        </mask>
        <path fill="#FEFEFE" d="M14.49 7.936l2.71-4.553 2.817 4.553h-5.526zm-13.449 0L3.86 3.383l2.709 4.553H1.04zm19.988 0l.012-.008-3.331-5.383a.88.88 0 0 0 .356-.708v-.115a.876.876 0 0 0-.873-.88h-4.897A.875.875 0 0 0 11.424 0h-1.79a.875.875 0 0 0-.872.843H3.866a.876.876 0 0 0-.873.879v.115c0 .291.14.548.355.708L.018 7.928l.011.008H0c.362 1.78 1.925 3.118 3.8 3.118 1.873 0 3.437-1.339 3.798-3.118h-.015l.002-.001L4.48 2.716h4.283c.015.358.242.66.558.784v10.465H5.789c-.483 0-.873.302-.873.674v.644c0 .372.39.673.873.673h9.729c.482 0 .873-.301.873-.673v-.644c0-.372-.391-.674-.873-.674h-3.78V3.5a.878.878 0 0 0 .558-.784h4.283l-3.106 5.219h.002-.015c.362 1.78 1.925 3.119 3.8 3.119 1.873 0 3.437-1.339 3.798-3.118h-.029z" mask="url(#b)"/>
    </g>
</svg>
