<svg xmlns="http://www.w3.org/2000/svg" xmlns:xlink="http://www.w3.org/1999/xlink" width="28" height="28" viewBox="0 0 28 28">
    <defs>
        <circle id="a" cx="14" cy="14" r="14"/>
    </defs>
    <g fill="none" fill-rule="evenodd">
        <mask id="b" fill="#fff">
            <use xlink:href="#a"/>
        </mask>
        <use fill="#FFF" opacity=".654" xlink:href="#a"/>
        <g mask="url(#b)">
            <path fill="#2D92A9" d="M27.044 21.771A14.426 14.426 0 0 0 29 14.61C29.058 6.659 22.644.105 14.695 0 6.513-.106-.131 6.561.002 14.741.132 22.673 6.678 29.059 14.611 29a14.431 14.431 0 0 0 6.43-1.56l3.844-.008a2.171 2.171 0 0 0 2.166-2.176l-.007-3.485"/>
            <path fill="#B3DFE3" d="M14 0C6.06.698-.13 7.055.002 14.742.132 22.21 6.27 28.313 14 29V0"/>
            <path fill="#E1E1DC" d="M28.39 18.667c.386-1.287.6-2.648.61-4.058a14.416 14.416 0 0 0-.613-4.276H20.76l4.988-4.963a14.663 14.663 0 0 0-2.06-2.072l-5 4.974V.618a14.512 14.512 0 0 0-8.376-.004v7.658L5.304 3.289A14.585 14.585 0 0 0 3.243 5.36l4.997 4.972H.608a14.511 14.511 0 0 0-.606 4.408c.022 1.363.234 2.68.61 3.926H8.24l-4.989 4.964a14.663 14.663 0 0 0 2.062 2.07l4.999-4.973v7.653c1.361.412 2.805.63 4.299.619a14.449 14.449 0 0 0 4.077-.618v-7.654l6.681 6.648a2.171 2.171 0 0 0 1.682-2.12v-.33l-6.29-6.259h7.629"/>
            <path fill="#FFFFFE" d="M14 29V0c-1.112.08-2.191.276-3.223.574v7.68L5.543 3.256a14.946 14.946 0 0 0-2.154 2.078l5.223 4.987H.635a14.007 14.007 0 0 0 .004 8.358h7.973l-5.214 4.979c.644.76 1.367 1.455 2.155 2.077l5.224-4.988v7.674c1.033.301 2.112.498 3.223.579"/>
            <path fill="#9A3155" d="M28.808 12.15H16.863V.192a14.608 14.608 0 0 0-4.725-.001v11.957H.19a14.614 14.614 0 0 0 .001 4.702h11.946v11.955a14.476 14.476 0 0 0 4.725 0V16.851H28.81a14.514 14.514 0 0 0 0-4.702"/>
            <path fill="#CE3C70" d="M15 0c-.832 0-1.649.066-2.444.192v11.957H.196a14.137 14.137 0 0 0 .002 4.702h12.358v11.955c.796.128 1.612.194 2.444.194V0"/>
        </g>
    </g>
</svg>
