<svg xmlns="http://www.w3.org/2000/svg" xmlns:xlink="http://www.w3.org/1999/xlink" width="20" height="18" viewBox="0 0 20 18">
    <defs>
        <path id="a" d="M19.74 13H0V.41h19.74z"/>
    </defs>
    <g fill="none" fill-rule="evenodd">
        <g transform="translate(0 5)">
            <mask id="b" fill="#fff">
                <use xlink:href="#a"/>
            </mask>
            <path fill="#3693E6" d="M18.226 11.523H1.514v-5.27h3.088a5.342 5.342 0 0 0 1.716 2.602 5.516 5.516 0 0 0 3.548 1.283c1.36 0 2.604-.483 3.556-1.283a5.307 5.307 0 0 0 1.712-2.601h3.092v5.269zm1.508-6.096a.694.694 0 0 0-.092-.46L17.162.778A.772.772 0 0 0 16.126.51a.728.728 0 0 0-.276 1.006l1.932 3.26H14.53v.005a.75.75 0 0 0-.748.624 3.822 3.822 0 0 1-1.344 2.328 3.99 3.99 0 0 1-2.572.924 3.965 3.965 0 0 1-2.56-.924A3.79 3.79 0 0 1 5.97 5.458a.752.752 0 0 0-.744-.682H1.962l1.928-3.26A.726.726 0 0 0 3.61.508a.769.769 0 0 0-1.032.27L.102 4.966a.674.674 0 0 0-.096.46c-.008.023-.008.055-.008.086v6.747c0 .41.336.74.76.74h18.224c.416 0 .76-.33.76-.74V5.513c0-.031 0-.063-.008-.086z" mask="url(#b)"/>
        </g>
        <path fill="#3693E6" d="M6.969 4.537L9.264 2.37v8.93c0 .387.33.7.736.7.409 0 .74-.313.74-.7V2.37l2.287 2.167a.75.75 0 0 0 .518.206.752.752 0 0 0 .522-.202.65.65 0 0 0 .219-.493.654.654 0 0 0-.215-.486L10.53.21 10.3.052 10.012 0l-.3.059-3.78 3.5a.672.672 0 0 0-.218.493c0 .18.078.353.215.485.14.133.323.206.522.206a.737.737 0 0 0 .518-.206z"/>
    </g>
</svg>
