<svg xmlns="http://www.w3.org/2000/svg" width="33" height="29" viewBox="0 0 33 29">
    <path fill="#1F2F38" fill-rule="evenodd" d="M26.94 17.74a1.826 1.826 0 0 1-1.818-1.835c0-1.012.814-1.834 1.818-1.834 1.005 0 1.819.822 1.819 1.834a1.826 1.826 0 0 1-1.819 1.834zM5.692 11.133c-.108 0-.216.009-.323.017l1.037-5.845c.343-1.936 2.184-3.341 4.376-3.341H21.13c2.822 0 5.193 1.818 5.637 4.323l.862 4.863a4.023 4.023 0 0 0-.322-.017H5.692zm.368 6.605a1.826 1.826 0 0 1-1.819-1.834c0-1.012.814-1.834 1.819-1.834 1.003 0 1.817.822 1.817 1.834A1.826 1.826 0 0 1 6.06 17.74zM31.172 7.6H28.98l-.294-1.657C28.076 2.499 24.898 0 21.131 0h-10.35C7.645 0 4.998 2.086 4.489 4.961L4.02 7.6H1.828C.818 7.6 0 8.424 0 9.443v.773c0 1.018.818 1.843 1.828 1.843h1.28a4.147 4.147 0 0 0-1.523 3.218v5.033c0 1.285.58 2.433 1.492 3.193v2.702c0 1.543 1.24 2.795 2.771 2.795h.423c1.53 0 2.771-1.252 2.771-2.795v-1.753h14.916v1.753c0 1.543 1.24 2.795 2.771 2.795h.423c1.53 0 2.771-1.252 2.771-2.795v-2.702a4.148 4.148 0 0 0 1.492-3.193v-5.033c0-1.3-.595-2.459-1.522-3.218h1.279c1.01 0 1.828-.825 1.828-1.843v-.773a1.835 1.835 0 0 0-1.828-1.844z" opacity=".5"/>
</svg>
