<svg xmlns="http://www.w3.org/2000/svg" xmlns:xlink="http://www.w3.org/1999/xlink" width="39" height="33" viewBox="0 0 39 33">
    <defs>
        <path id="a" d="M.376.172H38.72v11.183H.376V.172z"/>
    </defs>
    <g fill="none" fill-rule="evenodd">
        <path fill="#1F2F38" d="M27.453 27.503c-.002 1.378-1.108 2.499-2.465 2.497-1.358-.001-2.461-1.124-2.46-2.503.002-1.378 1.108-2.499 2.465-2.497 1.358.002 2.461 1.124 2.46 2.503m-7.668-1.509l-18.306-.019A1.488 1.488 0 0 0 0 27.473c-.001.83.66 1.501 1.476 1.503l18.306.018c.642 2.307 2.728 4.003 5.203 4.006 2.474.003 4.564-1.69 5.211-3.994l6.324.005A1.49 1.49 0 0 0 38 27.513c0-.829-.66-1.5-1.476-1.502l-6.325-.005c-.642-2.306-2.728-4.003-5.203-4.006-2.474-.003-4.564 1.69-5.211 3.994"/>
        <g>
            <mask id="b" fill="#fff">
                <use xlink:href="#a"/>
            </mask>
            <path fill="#1F2F38" d="M28.078 5.766c-.002 1.402-1.118 2.541-2.488 2.54-1.37-.003-2.483-1.144-2.482-2.545.002-1.402 1.118-2.54 2.487-2.54 1.37.002 2.484 1.144 2.483 2.545M25.598.172c-2.496-.003-4.605 1.718-5.258 4.06L1.868 4.214c-.823 0-1.491.681-1.492 1.524-.001.842.665 1.525 1.489 1.526l18.472.02c.648 2.344 2.753 4.069 5.25 4.072 2.496.003 4.605-1.718 5.258-4.06l6.382.005c.824 0 1.492-.681 1.493-1.523 0-.843-.666-1.526-1.49-1.527l-6.381-.006C30.2 1.9 28.096.174 25.599.172" mask="url(#b)"/>
        </g>
        <path fill="#1F2F38" d="M15.141 16.503c-.001 1.378-1.108 2.499-2.465 2.497-1.358-.001-2.461-1.124-2.46-2.502.002-1.379 1.108-2.5 2.465-2.498 1.358.002 2.461 1.124 2.46 2.503M12.685 11c-2.475-.003-4.564 1.69-5.212 3.994L1.48 14.99A1.488 1.488 0 0 0 0 16.487a1.49 1.49 0 0 0 1.476 1.502l5.994.005c.642 2.307 2.728 4.003 5.203 4.006 2.474.003 4.564-1.69 5.211-3.994l18.637.02c.816 0 1.478-.67 1.479-1.5.001-.828-.66-1.5-1.476-1.501l-18.636-.019c-.643-2.306-2.729-4.003-5.203-4.006"/>
    </g>
</svg>
