<svg xmlns="http://www.w3.org/2000/svg" xmlns:xlink="http://www.w3.org/1999/xlink" width="20" height="18" viewBox="0 0 20 18">
    <defs>
        <path id="a" d="M24 25H0V0h24z"/>
    </defs>
    <g fill="none" fill-rule="evenodd" transform="translate(-2 -4)">
        <mask id="b" fill="#fff">
            <use xlink:href="#a"/>
        </mask>
        <path fill="#3693E6" stroke="#3693E6" stroke-width=".5" d="M7.753 6.423c-.874 0-1.686.379-2.285 1.066-.696.799-1.064 1.953-1.064 3.337 0 4.199 6.161 7.862 7.608 8.664 1.452-.74 7.584-4.132 7.584-8.664 0-1.37-.367-2.507-1.062-3.286a3.033 3.033 0 0 0-2.288-1.037c-1.504 0-2.884 1.058-3.6 2.762a.702.702 0 0 1-.645.433H12a.702.702 0 0 1-.645-.431c-.754-1.78-2.1-2.844-3.602-2.844M11.998 21a.697.697 0 0 1-.316-.075C11.328 20.744 3 16.435 3 10.826c0-1.736.49-3.216 1.416-4.28C5.286 5.55 6.471 5 7.753 5c1.661 0 3.208.933 4.25 2.504 1.028-1.521 2.57-2.424 4.243-2.424 1.282 0 2.464.535 3.33 1.506C20.508 7.63 21 9.097 21 10.826c0 6.031-8.356 9.947-8.712 10.11a.69.69 0 0 1-.29.064" mask="url(#b)"/>
    </g>
</svg>
