<?xml version="1.0" encoding="UTF-8" standalone="no"?>
<svg
   xmlns:dc="http://purl.org/dc/elements/1.1/"
   xmlns:cc="http://creativecommons.org/ns#"
   xmlns:rdf="http://www.w3.org/1999/02/22-rdf-syntax-ns#"
   xmlns:svg="http://www.w3.org/2000/svg"
   xmlns="http://www.w3.org/2000/svg"
   xmlns:xlink="http://www.w3.org/1999/xlink"
   xmlns:sodipodi="http://sodipodi.sourceforge.net/DTD/sodipodi-0.dtd"
   xmlns:inkscape="http://www.inkscape.org/namespaces/inkscape"
   width="258"
   height="51"
   viewBox="0 0 258 51"
   id="svg2"
   version="1.1"
   inkscape:version="0.91 r13725"
   sodipodi:docname="logo_black.svg">
  <metadata
     id="metadata43">
    <rdf:RDF>
      <cc:Work
         rdf:about="">
        <dc:format>image/svg+xml</dc:format>
        <dc:type
           rdf:resource="http://purl.org/dc/dcmitype/StillImage" />
        <dc:title />
      </cc:Work>
    </rdf:RDF>
  </metadata>
  <sodipodi:namedview
     pagecolor="#ffffff"
     bordercolor="#666666"
     borderopacity="1"
     objecttolerance="10"
     gridtolerance="10"
     guidetolerance="10"
     inkscape:pageopacity="0"
     inkscape:pageshadow="2"
     inkscape:window-width="2541"
     inkscape:window-height="876"
     id="namedview41"
     showgrid="false"
     inkscape:zoom="4.627451"
     inkscape:cx="54.993092"
     inkscape:cy="25.5"
     inkscape:window-x="612"
     inkscape:window-y="248"
     inkscape:window-maximized="0"
     inkscape:current-layer="svg2" />
  <defs
     id="defs4">
    <path
       id="a"
       d="M0 0v11h29V0z" />
    <filter
       id="c"
       width="110.5%"
       height="111.1%"
       x="-2.6%"
       y="-2.8%"
       filterUnits="objectBoundingBox">
      <feOffset
         dx="1"
         dy="1"
         in="SourceAlpha"
         result="shadowOffsetOuter1"
         id="feOffset8" />
      <feColorMatrix
         in="shadowOffsetOuter1"
         result="shadowMatrixOuter1"
         values="0 0 0 0 0.0901892007 0 0 0 0 0.0874935599 0 0 0 0 0.0874935599 0 0 0 0.5 0"
         id="feColorMatrix10" />
      <feMerge
         id="feMerge12">
        <feMergeNode
           in="shadowMatrixOuter1"
           id="feMergeNode14" />
        <feMergeNode
           in="SourceGraphic"
           id="feMergeNode16" />
      </feMerge>
    </filter>
    <path
       id="d"
       d="M9.5 0H19v18H0V0z" />
  </defs>
  <g
     fill="none"
     fill-rule="evenodd"
     id="g19">
    <g
       transform="translate(10 7)"
       id="g21">
      <g
         opacity=".25"
         style="mix-blend-mode:multiply"
         transform="translate(0 28)"
         id="g23">
        <mask
           id="b"
           fill="#fff">
          <use
             xlink:href="#a"
             id="use26" />
        </mask>
        <path
           fill="#000"
           d="M28.995 3.64l-.002-.018.005-.067a.14.14 0 0 0-.033-.104C28.46 1.508 22.182 0 14.5 0 6.505 0 0 1.66 0 3.7a.13.13 0 0 0 0 .01.13.13 0 0 0 .005.046c.032.552.53 1.081 1.478 1.574 3.324 2.02 11.334 5.339 11.674 5.48.287.118.793.19 1.338.19s1.051-.072 1.338-.19c.34-.14 8.328-3.448 11.66-5.468C28.494 4.827 29 4.275 29 3.7c0-.02-.002-.04-.005-.06"
           mask="url(#b)"
           id="path28" />
      </g>
      <path
         fill="#2BA777"
         stroke="#FFF"
         stroke-width="3"
         d="M26.998 11.956a1.553 1.553 0 0 0-.028-.347C26.536 5.072 21.122 0 14.5 0 7.609 0 2 5.583 2 12.446c0 .103.002.143.004.187.028 1.858.456 3.64 1.274 5.295 2.866 6.793 9.771 17.958 10.064 18.431a1.357 1.357 0 0 0 2.307 0c.293-.47 7.179-11.597 10.053-18.39A12.278 12.278 0 0 0 27 12.446c0-.068-.002-.135-.004-.202 0-.172.002-.247.002-.288z"
         id="path30" />
      <circle
         cx="14.5"
         cy="13.5"
         r="5.5"
         fill="#BEEAAE"
         id="circle32" />
    </g>
    <g
       filter="url(#c)"
       transform="translate(3 2)"
       id="g34">
      <mask
         id="e"
         fill="#fff">
        <use
           xlink:href="#d"
           id="use37" />
      </mask>
      <path
         fill="#3693E6"
         d="M9.753 14.943C9.477 14.808 3 11.576 3 7.37c0-1.303.38-2.413 1.101-3.21A3.462 3.462 0 0 1 6.697 3c1.292 0 2.495.7 3.305 1.878.8-1.141 2-1.818 3.3-1.818.997 0 1.917.4 2.59 1.13C16.618 4.972 17 6.072 17 7.37c0 4.523-6.5 7.46-6.776 7.582a.554.554 0 0 1-.471-.009z"
         mask="url(#e)"
         id="path39" />
    </g>
  </g>
  <g
     style="font-style:normal;font-variant:normal;font-weight:600;font-stretch:normal;font-size:25.73930931px;line-height:125%;font-family:Poppins;-inkscape-font-specification:'Poppins Semi-Bold';letter-spacing:0px;word-spacing:0px;fill:#000000;fill-opacity:1;stroke:none;stroke-width:1px;stroke-linecap:butt;stroke-linejoin:miter;stroke-opacity:1"
     id="text4152">
    <path
       d="m 52.167787,11.741575 4.452901,13.693312 4.4529,-13.693312 4.710294,0 -6.33187,18.197691 -5.688387,0 -6.306131,-18.197691 4.710293,0 z"
       style=""
       id="path4236" />
    <path
       d="m 72.92815,15.396556 q 1.647316,0 2.831324,0.74644 1.184008,0.74644 1.750273,2.033406 l 0,-2.59967 4.375682,0 0,14.362534 -4.375682,0 0,-2.59967 q -0.566265,1.286965 -1.750273,2.033405 -1.184008,0.74644 -2.831324,0.74644 -1.776013,0 -3.191675,-0.875136 -1.389922,-0.900876 -2.21358,-2.573931 -0.797919,-1.673055 -0.797919,-3.912375 0,-2.265059 0.797919,-3.912375 0.823658,-1.673055 2.21358,-2.548192 1.415662,-0.900876 3.191675,-0.900876 z m 1.415662,3.860897 q -1.415662,0 -2.290799,0.926615 -0.849397,0.926615 -0.849397,2.573931 0,1.647316 0.849397,2.573931 0.875137,0.926615 2.290799,0.926615 1.389922,0 2.265059,-0.952354 0.900876,-0.952355 0.900876,-2.548192 0,-1.621577 -0.900876,-2.548192 -0.875137,-0.952354 -2.265059,-0.952354 z m -4.47864,-7.155528 q 0,-0.797919 0.514786,-1.338444 0.540526,-0.540526 1.338444,-0.540526 0.797919,0 1.312705,0.540526 0.540525,0.540525 0.540525,1.338444 0,0.772179 -0.540525,1.312705 -0.514786,0.514786 -1.312705,0.514786 -0.797918,0 -1.338444,-0.514786 -0.514786,-0.540526 -0.514786,-1.312705 z m 5.22508,0 q 0,-0.797919 0.514786,-1.338444 0.540525,-0.540526 1.312705,-0.540526 0.797918,0 1.312704,0.540526 0.540526,0.540525 0.540526,1.338444 0,0.772179 -0.540526,1.312705 -0.514786,0.514786 -1.312704,0.514786 -0.77218,0 -1.312705,-0.514786 -0.514786,-0.540526 -0.514786,-1.312705 z"
       style=""
       id="path4238" />
    <path
       d="m 89.31725,10.892177 0,19.047089 -4.401422,0 0,-19.047089 4.401422,0 z"
       style=""
       id="path4240" />
    <path
       d="m 101.05598,29.939266 -4.29846,-6.100216 0,6.100216 -4.401422,0 0,-19.047089 4.401422,0 0,10.45016 4.29846,-5.765605 5.17361,0 -5.79135,7.181267 5.92004,7.181267 -5.3023,0 z"
       style=""
       id="path4242" />
    <path
       d="m 114.70868,15.396556 q 2.13636,0 3.80942,0.900876 1.69879,0.875137 2.65114,2.548192 0.9781,1.673055 0.9781,3.912375 0,2.23932 -0.9781,3.912375 -0.95235,1.673055 -2.65114,2.573931 -1.67306,0.875136 -3.80942,0.875136 -2.13636,0 -3.83516,-0.875136 -1.69879,-0.900876 -2.67689,-2.573931 -0.95235,-1.673055 -0.95235,-3.912375 0,-2.23932 0.95235,-3.912375 0.9781,-1.673055 2.67689,-2.548192 1.6988,-0.900876 3.83516,-0.900876 z m 0,3.809418 q -1.26123,0 -2.13636,0.926615 -0.8494,0.900876 -0.8494,2.62541 0,1.724534 0.8494,2.625409 0.87513,0.900876 2.13636,0.900876 1.26122,0 2.11062,-0.900876 0.8494,-0.900875 0.8494,-2.625409 0,-1.724534 -0.8494,-2.62541 -0.8494,-0.926615 -2.11062,-0.926615 z"
       style=""
       id="path4244" />
    <path
       d="m 142.98894,15.422296 q 2.65115,0 4.16977,1.647316 1.51862,1.621576 1.51862,4.530118 l 0,8.339536 -4.37568,0 0,-7.82475 q 0,-1.364183 -0.74644,-2.110623 -0.7207,-0.772179 -1.98193,-0.772179 -1.31271,0 -2.08488,0.823657 -0.74644,0.797919 -0.74644,2.26506 l 0,7.618835 -4.40143,0 0,-7.82475 q 0,-1.364183 -0.7207,-2.110623 -0.7207,-0.772179 -1.98192,-0.772179 -1.31271,0 -2.08489,0.797918 -0.77218,0.797919 -0.77218,2.290799 l 0,7.618835 -4.40142,0 0,-14.362534 4.40142,0 0,2.445234 q 0.56627,-1.209748 1.72454,-1.904709 1.184,-0.694961 2.7541,-0.694961 1.64732,0 2.90854,0.772179 1.26123,0.74644 1.90471,2.162102 0.74644,-1.338444 2.03341,-2.136363 1.3127,-0.797918 2.8828,-0.797918 z"
       style=""
       id="path4246" />
    <path
       d="m 170.18614,15.422296 q 2.65115,0 4.16977,1.647316 1.51862,1.621576 1.51862,4.530118 l 0,8.339536 -4.37569,0 0,-7.82475 q 0,-1.364183 -0.74644,-2.110623 -0.7207,-0.772179 -1.98192,-0.772179 -1.31271,0 -2.08489,0.823657 -0.74644,0.797919 -0.74644,2.26506 l 0,7.618835 -4.40142,0 0,-7.82475 q 0,-1.364183 -0.7207,-2.110623 -0.7207,-0.772179 -1.98193,-0.772179 -1.3127,0 -2.08488,0.797918 -0.77218,0.797919 -0.77218,2.290799 l 0,7.618835 -4.40142,0 0,-14.362534 4.40142,0 0,2.445234 q 0.56626,-1.209748 1.72453,-1.904709 1.18401,-0.694961 2.75411,-0.694961 1.64732,0 2.90854,0.772179 1.26123,0.74644 1.90471,2.162102 0.74644,-1.338444 2.03341,-2.136363 1.3127,-0.797918 2.8828,-0.797918 z"
       style=""
       id="path4248" />
    <path
       d="m 192.41565,22.371909 q 0,0.540526 -0.1287,1.184008 l -9.96111,0 q 0.0772,1.621577 0.82366,2.342278 0.74644,0.694961 1.90471,0.694961 0.97809,0 1.62157,-0.489047 0.64349,-0.489047 0.8494,-1.261226 l 4.65882,0 q -0.28314,1.518619 -1.23549,2.728367 -0.95236,1.184008 -2.4195,1.878969 -1.46714,0.669222 -3.26889,0.669222 -2.11062,0 -3.75794,-0.875136 -1.62157,-0.900876 -2.54819,-2.573931 -0.92662,-1.673055 -0.92662,-3.912375 0,-2.265059 0.90088,-3.912375 0.92662,-1.673055 2.57393,-2.548192 1.64732,-0.900876 3.75794,-0.900876 2.13636,0 3.75794,0.875137 1.62158,0.875136 2.49671,2.470974 0.90088,1.570098 0.90088,3.629242 z m -4.4529,-0.669222 q 0.0257,-1.415662 -0.77218,-2.110623 -0.77218,-0.720701 -1.93045,-0.720701 -1.20975,0 -2.00767,0.720701 -0.79791,0.720701 -0.90087,2.110623 l 5.61117,0 z"
       style=""
       id="path4250" />
    <path
       d="m 203.77152,15.422296 q 2.47097,0 3.91237,1.647316 1.46714,1.647315 1.46714,4.530118 l 0,8.339536 -4.40142,0 0,-7.82475 q 0,-1.441401 -0.77218,-2.23932 -0.74644,-0.823658 -2.00766,-0.823658 -1.33845,0 -2.13637,0.849398 -0.77218,0.849397 -0.77218,2.419495 l 0,7.618835 -4.40142,0 0,-14.362534 4.40142,0 0,2.625409 q 0.61775,-1.286965 1.82749,-2.033405 1.23549,-0.74644 2.88281,-0.74644 z"
       style=""
       id="path4252" />
    <path
       d="m 226.29341,15.422296 q 2.47098,0 3.91238,1.647316 1.46714,1.647315 1.46714,4.530118 l 0,8.339536 -4.40142,0 0,-7.82475 q 0,-1.441401 -0.77218,-2.23932 -0.74644,-0.823658 -2.00767,-0.823658 -1.33844,0 -2.13636,0.849398 -0.77218,0.849397 -0.77218,2.419495 l 0,7.618835 -4.40142,0 0,-19.047089 4.40142,0 0,7.309964 q 0.61774,-1.286965 1.82749,-2.033405 1.23549,-0.74644 2.8828,-0.74644 z"
       style=""
       id="path4254" />
    <path
       d="m 234.164,11.53566 q 0,-1.003833 0.7207,-1.6473157 0.7207,-0.6692221 1.90471,-0.6692221 1.18401,0 1.90471,0.6692221 0.7207,0.6434827 0.7207,1.6473157 0,0.978094 -0.7207,1.647316 -0.7207,0.643483 -1.90471,0.643483 -1.18401,0 -1.90471,-0.643483 -0.7207,-0.669222 -0.7207,-1.647316 z m 4.81325,4.041072 0,14.362534 -4.40142,0 0,-14.362534 4.40142,0 z"
       style=""
       id="path4256" />
    <path
       d="m 250.14973,26.155588 0,3.783678 -1.98193,0 q -2.52245,0 -3.93811,-1.235487 -1.38992,-1.261226 -1.38992,-4.144028 l 0,-5.276559 -1.93045,0 0,-3.70646 1.93045,0 0,-3.526286 4.40142,0 0,3.526286 2.8828,0 0,3.70646 -2.8828,0 0,5.353776 q 0,0.849398 0.33461,1.184009 0.36035,0.334611 1.18401,0.334611 l 1.38992,0 z"
       style=""
       id="path4258" />
  </g>
  <g
     style="font-style:normal;font-variant:normal;font-weight:500;font-stretch:normal;font-size:10px;line-height:125%;font-family:Poppins;-inkscape-font-specification:'Poppins Semi-Bold';letter-spacing:0px;word-spacing:0px;fill:#000000;fill-opacity:1;stroke:none;stroke-width:1px;stroke-linecap:butt;stroke-linejoin:miter;stroke-opacity:1"
     id="text4156">
    <path
       d="m 52.736895,40.572328 q 0,0.52 -0.25,0.97 -0.25,0.44 -0.76,0.71 -0.51,0.27 -1.25,0.27 -0.72,0 -1.29,-0.25 -0.57,-0.26 -0.91,-0.72 -0.34,-0.46 -0.39,-1.06 l 1.22,0 q 0.05,0.46 0.39,0.79 0.35,0.33 0.93,0.33 0.52,0 0.8,-0.28 0.29,-0.28 0.29,-0.72 0,-0.38 -0.21,-0.62 -0.21,-0.25 -0.52,-0.39 -0.31,-0.14 -0.85,-0.32 -0.66,-0.21 -1.08,-0.42 -0.41,-0.21 -0.7,-0.61 -0.29,-0.4 -0.29,-1.05 0,-0.57 0.28,-1 0.28,-0.43 0.8,-0.66 0.52,-0.24 1.2,-0.24 1.08,0 1.71,0.52 0.64,0.52 0.73,1.36 l -1.23,0 q -0.07,-0.4 -0.38,-0.68 -0.3,-0.29 -0.83,-0.29 -0.48,0 -0.77,0.25 -0.29,0.24 -0.29,0.7 0,0.36 0.2,0.6 0.2,0.23 0.5,0.37 0.31,0.13 0.84,0.31 0.67,0.21 1.09,0.43 0.43,0.21 0.72,0.62 0.3,0.41 0.3,1.08 z"
       style=""
       id="path4157" />
    <path
       d="m 56.138145,41.272328 1.56,-4.33 1.22,0 -2.1,5.51 -1.38,0 -2.1,-5.51 1.22,0 1.58,4.33 z"
       style=""
       id="path4159" />
    <path
       d="m 64.877051,39.432328 q 0,0.28 -0.04,0.49 l -4.24,0 q 0.03,0.85 0.47,1.26 0.44,0.41 1.09,0.41 0.57,0 0.96,-0.29 0.4,-0.29 0.49,-0.77 l 1.22,0 q -0.11,0.58 -0.46,1.03 -0.35,0.45 -0.91,0.71 -0.56,0.25 -1.25,0.25 -0.8,0 -1.42,-0.34 -0.61,-0.34 -0.96,-0.98 -0.35,-0.64 -0.35,-1.51 0,-0.86 0.35,-1.5 0.35,-0.64 0.96,-0.98 0.62,-0.34 1.42,-0.34 0.81,0 1.41,0.34 0.61,0.33 0.93,0.92 0.33,0.58 0.33,1.3 z m -1.15,-0.03 q 0.02,-0.54 -0.19,-0.9 -0.2,-0.37 -0.56,-0.54 -0.35,-0.18 -0.77,-0.18 -0.67,0 -1.12,0.41 -0.45,0.41 -0.49,1.21 l 3.13,0 z"
       style=""
       id="path4161" />
    <path
       d="m 67.107988,38.022328 q 0.28,-0.54 0.8,-0.85 0.52,-0.32 1.2,-0.32 l 0,1.24 -0.34,0 q -0.75,0 -1.21,0.37 -0.45,0.36 -0.45,1.2 l 0,2.79 -1.14,0 0,-5.51 1.14,0 0,1.08 z"
       style=""
       id="path4163" />
    <path
       d="m 69.792363,35.342328 q 0,-0.29 0.2,-0.48 0.2,-0.19 0.53,-0.19 0.33,0 0.53,0.19 0.21,0.19 0.21,0.48 0,0.29 -0.21,0.47 -0.2,0.18 -0.53,0.18 -0.33,0 -0.53,-0.18 -0.2,-0.18 -0.2,-0.47 z m 1.3,1.6 0,5.51 -1.14,0 0,-5.51 1.14,0 z"
       style=""
       id="path4165" />
    <path
       d="m 74.681895,36.872328 q 0.75,0 1.28,0.37 0.53,0.37 0.75,0.98 l 0,-1.28 1.14,0 0,5.57 q 0,0.77 -0.32,1.36 -0.31,0.6 -0.9,0.94 -0.59,0.34 -1.4,0.34 -1.16,0 -1.88,-0.55 -0.71,-0.55 -0.89,-1.49 l 1.13,0 q 0.14,0.49 0.54,0.76 0.4,0.28 1.02,0.28 0.68,0 1.12,-0.42 0.44,-0.42 0.44,-1.22 l 0,-1.34 q -0.22,0.61 -0.75,0.98 -0.53,0.37 -1.28,0.37 -0.72,0 -1.29,-0.34 -0.56,-0.34 -0.88,-0.98 -0.32,-0.64 -0.32,-1.51 0,-0.86 0.32,-1.5 0.32,-0.64 0.88,-0.98 0.57,-0.34 1.29,-0.34 z m 0.35,1 q -0.76,0 -1.22,0.49 -0.45,0.48 -0.45,1.33 0,0.85 0.45,1.34 0.46,0.48 1.22,0.48 0.48,0 0.86,-0.22 0.38,-0.23 0.6,-0.64 0.22,-0.41 0.22,-0.96 0,-0.54 -0.22,-0.95 -0.22,-0.42 -0.6,-0.64 -0.38,-0.23 -0.86,-0.23 z"
       style=""
       id="path4167" />
    <path
       d="m 84.349707,39.432328 q 0,0.28 -0.04,0.49 l -4.24,0 q 0.03,0.85 0.47,1.26 0.44,0.41 1.09,0.41 0.57,0 0.96,-0.29 0.4,-0.29 0.49,-0.77 l 1.22,0 q -0.11,0.58 -0.46,1.03 -0.35,0.45 -0.91,0.71 -0.56,0.25 -1.25,0.25 -0.8,0 -1.42,-0.34 -0.61,-0.34 -0.96,-0.98 -0.35,-0.64 -0.35,-1.51 0,-0.86 0.35,-1.5 0.35,-0.64 0.96,-0.98 0.62,-0.34 1.42,-0.34 0.81,0 1.41,0.34 0.61,0.33 0.93,0.92 0.33,0.58 0.33,1.3 z m -1.15,-0.03 q 0.02,-0.54 -0.19,-0.9 -0.2,-0.37 -0.56,-0.54 -0.35,-0.18 -0.77,-0.18 -0.67,0 -1.12,0.41 -0.45,0.41 -0.49,1.21 l 3.13,0 z"
       style=""
       id="path4169" />
    <path
       d="m 87.250645,36.872328 q 0.97,0 1.55,0.5 0.59,0.49 0.72,1.32 l -1.08,0 q -0.07,-0.45 -0.39,-0.72 -0.31,-0.28 -0.83,-0.28 -0.43,0 -0.67,0.21 -0.23,0.2 -0.23,0.55 0,0.26 0.17,0.42 0.17,0.16 0.42,0.25 0.26,0.09 0.73,0.2 0.62,0.14 1,0.29 0.39,0.15 0.66,0.48 0.28,0.32 0.28,0.88 0,0.69 -0.53,1.12 -0.52,0.43 -1.41,0.43 -1.03,0 -1.67,-0.48 -0.63,-0.48 -0.76,-1.34 l 1.11,0 q 0.05,0.45 0.4,0.73 0.35,0.28 0.92,0.28 0.41,0 0.64,-0.21 0.24,-0.22 0.24,-0.55 0,-0.29 -0.18,-0.46 -0.18,-0.17 -0.45,-0.26 -0.27,-0.1 -0.74,-0.2 -0.6,-0.14 -0.98,-0.28 -0.37,-0.14 -0.64,-0.45 -0.26,-0.32 -0.26,-0.86 0,-0.7 0.52,-1.13 0.53,-0.44 1.46,-0.44 z"
       style=""
       id="path4171" />
    <path
       d="m 95.647363,35.802328 q -0.67,-0.03 -0.94,0.22 -0.27,0.24 -0.27,0.83 l 0,0.09 1.21,0 0,0.98 -1.21,0 0,4.53 -1.15,0 0,-4.53 -0.75,0 0,-0.98 0.75,0 0,-0.18 q 0,-1.01 0.59,-1.51 0.59,-0.51 1.77,-0.45 l 0,1 z"
       style=""
       id="path4173" />
    <path
       d="m 99.093457,36.872328 q 0.8,0 1.440003,0.34 0.64,0.34 1,0.98 0.36,0.64 0.36,1.5 0,0.87 -0.36,1.51 -0.36,0.64 -1,0.98 -0.640003,0.34 -1.440003,0.34 -0.8,0 -1.44,-0.34 -0.63,-0.34 -1,-0.98 -0.36,-0.65 -0.36,-1.51 0,-0.86 0.36,-1.5 0.37,-0.64 1,-0.98 0.64,-0.34 1.44,-0.34 z m 0,0.99 q -0.44,0 -0.81,0.2 -0.37,0.2 -0.6,0.62 -0.22,0.41 -0.22,1.01 0,0.61 0.22,1.02 0.23,0.41 0.6,0.61 0.37,0.2 0.81,0.2 0.44,0 0.81,-0.2 0.370003,-0.2 0.590003,-0.61 0.23,-0.41 0.23,-1.02 0,-0.6 -0.23,-1.01 -0.22,-0.42 -0.590003,-0.62 -0.37,-0.2 -0.81,-0.2 z m -1.44,-2.21 q 0,-0.24 0.16,-0.4 0.16,-0.16 0.4,-0.16 0.24,0 0.4,0.16 0.17,0.16 0.17,0.4 0,0.23 -0.17,0.4 -0.16,0.16 -0.4,0.16 -0.24,0 -0.4,-0.16 -0.16,-0.17 -0.16,-0.4 z m 1.77,0 q 0,-0.24 0.16,-0.4 0.16,-0.16 0.4,-0.16 0.240003,0 0.400003,0.16 0.16,0.16 0.16,0.4 0,0.23 -0.16,0.4 -0.16,0.16 -0.400003,0.16 -0.24,0 -0.4,-0.16 -0.16,-0.17 -0.16,-0.4 z"
       style=""
       id="path4175" />
    <path
       d="m 104.13924,38.022328 q 0.28,-0.54 0.8,-0.85 0.52,-0.32 1.2,-0.32 l 0,1.24 -0.34,0 q -0.75,0 -1.21,0.37 -0.45,0.36 -0.45,1.2 l 0,2.79 -1.14,0 0,-5.51 1.14,0 0,1.08 z"
       style=""
       id="path4177" />
    <path
       d="m 108.79361,36.872328 q 0.97,0 1.55,0.5 0.59,0.49 0.72,1.32 l -1.08,0 q -0.07,-0.45 -0.39,-0.72 -0.31,-0.28 -0.83,-0.28 -0.43,0 -0.67,0.21 -0.23,0.2 -0.23,0.55 0,0.26 0.17,0.42 0.17,0.16 0.42,0.25 0.26,0.09 0.73,0.2 0.62,0.14 1,0.29 0.39,0.15 0.66,0.48 0.28,0.32 0.28,0.88 0,0.69 -0.53,1.12 -0.52,0.43 -1.41,0.43 -1.03,0 -1.67,-0.48 -0.63,-0.48 -0.76,-1.34 l 1.11,0 q 0.05,0.45 0.4,0.73 0.35,0.28 0.92,0.28 0.41,0 0.64,-0.21 0.24,-0.22 0.24,-0.55 0,-0.29 -0.18,-0.46 -0.18,-0.17 -0.45,-0.26 -0.27,-0.1 -0.74,-0.2 -0.6,-0.14 -0.98,-0.28 -0.37,-0.14 -0.64,-0.45 -0.26,-0.32 -0.26,-0.86 0,-0.7 0.52,-1.13 0.53,-0.44 1.46,-0.44 z"
       style=""
       id="path4179" />
    <path
       d="m 115.04658,41.462328 0,0.99 -0.7,0 q -0.88,0 -1.34,-0.42 -0.45,-0.43 -0.45,-1.42 l 0,-2.7 -0.79,0 0,-0.97 0.79,0 0,-1.37 1.15,0 0,1.37 1.33,0 0,0.97 -1.33,0 0,2.72 q 0,0.47 0.17,0.65 0.18,0.18 0.62,0.18 l 0.55,0 z"
       style=""
       id="path4181" />
    <path
       d="m 118.31471,36.872328 q 0.75,0 1.28,0.37 0.53,0.37 0.75,0.98 l 0,-1.28 1.14,0 0,5.51 -1.14,0 0,-1.28 q -0.22,0.61 -0.75,0.98 -0.53,0.37 -1.28,0.37 -0.72,0 -1.29,-0.34 -0.56,-0.34 -0.88,-0.98 -0.32,-0.64 -0.32,-1.51 0,-0.86 0.32,-1.5 0.32,-0.64 0.88,-0.98 0.57,-0.34 1.29,-0.34 z m 0.35,1 q -0.76,0 -1.22,0.49 -0.45,0.48 -0.45,1.33 0,0.85 0.45,1.34 0.46,0.48 1.22,0.48 0.48,0 0.86,-0.22 0.38,-0.23 0.6,-0.64 0.22,-0.41 0.22,-0.96 0,-0.54 -0.22,-0.95 -0.22,-0.42 -0.6,-0.64 -0.38,-0.23 -0.86,-0.23 z"
       style=""
       id="path4183" />
    <path
       d="m 127.41627,36.872328 q 0.75,0 1.28,0.37 0.53,0.37 0.74,0.98 l 0,-3.17 1.15,0 0,7.4 -1.15,0 0,-1.28 q -0.21,0.61 -0.74,0.98 -0.53,0.37 -1.28,0.37 -0.72,0 -1.29,-0.34 -0.56,-0.34 -0.88,-0.98 -0.32,-0.64 -0.32,-1.51 0,-0.86 0.32,-1.5 0.32,-0.64 0.88,-0.98 0.57,-0.34 1.29,-0.34 z m 0.35,1 q -0.76,0 -1.22,0.49 -0.45,0.48 -0.45,1.33 0,0.85 0.45,1.34 0.46,0.48 1.22,0.48 0.48,0 0.86,-0.22 0.38,-0.23 0.6,-0.64 0.22,-0.41 0.22,-0.96 0,-0.54 -0.22,-0.95 -0.22,-0.42 -0.6,-0.64 -0.38,-0.23 -0.86,-0.23 z"
       style=""
       id="path4185" />
    <path
       d="m 131.80408,35.342328 q 0,-0.29 0.2,-0.48 0.2,-0.19 0.53,-0.19 0.33,0 0.53,0.19 0.21,0.19 0.21,0.48 0,0.29 -0.21,0.47 -0.2,0.18 -0.53,0.18 -0.33,0 -0.53,-0.18 -0.2,-0.18 -0.2,-0.47 z m 1.3,1.6 0,5.51 -1.14,0 0,-5.51 1.14,0 z"
       style=""
       id="path4187" />
    <path
       d="m 136.69361,36.872328 q 0.75,0 1.28,0.37 0.53,0.37 0.75,0.98 l 0,-1.28 1.14,0 0,5.57 q 0,0.77 -0.32,1.36 -0.31,0.6 -0.9,0.94 -0.59,0.34 -1.4,0.34 -1.16,0 -1.88,-0.55 -0.71,-0.55 -0.89,-1.49 l 1.13,0 q 0.14,0.49 0.54,0.76 0.4,0.28 1.02,0.28 0.68,0 1.12,-0.42 0.44,-0.42 0.44,-1.22 l 0,-1.34 q -0.22,0.61 -0.75,0.98 -0.53,0.37 -1.28,0.37 -0.72,0 -1.29,-0.34 -0.56,-0.34 -0.88,-0.98 -0.32,-0.64 -0.32,-1.51 0,-0.86 0.32,-1.5 0.32,-0.64 0.88,-0.98 0.57,-0.34 1.29,-0.34 z m 0.35,1 q -0.76,0 -1.22,0.49 -0.45,0.48 -0.45,1.33 0,0.85 0.45,1.34 0.46,0.48 1.22,0.48 0.48,0 0.86,-0.22 0.38,-0.23 0.6,-0.64 0.22,-0.41 0.22,-0.96 0,-0.54 -0.22,-0.95 -0.22,-0.42 -0.6,-0.64 -0.38,-0.23 -0.86,-0.23 z"
       style=""
       id="path4189" />
    <path
       d="m 141.08143,35.342328 q 0,-0.29 0.2,-0.48 0.2,-0.19 0.53,-0.19 0.33,0 0.53,0.19 0.21,0.19 0.21,0.48 0,0.29 -0.21,0.47 -0.2,0.18 -0.53,0.18 -0.33,0 -0.53,-0.18 -0.2,-0.18 -0.2,-0.47 z m 1.3,1.6 0,5.51 -1.14,0 0,-5.51 1.14,0 z"
       style=""
       id="path4191" />
    <path
       d="m 146.53096,41.462328 0,0.99 -0.7,0 q -0.88,0 -1.34,-0.42 -0.45,-0.43 -0.45,-1.42 l 0,-2.7 -0.79,0 0,-0.97 0.79,0 0,-1.37 1.15,0 0,1.37 1.33,0 0,0.97 -1.33,0 0,2.72 q 0,0.47 0.17,0.65 0.18,0.18 0.62,0.18 l 0.55,0 z"
       style=""
       id="path4193" />
    <path
       d="m 149.79908,36.872328 q 0.75,0 1.28,0.37 0.53,0.37 0.75,0.98 l 0,-1.28 1.14,0 0,5.51 -1.14,0 0,-1.28 q -0.22,0.61 -0.75,0.98 -0.53,0.37 -1.28,0.37 -0.72,0 -1.29,-0.34 -0.56,-0.34 -0.88,-0.98 -0.32,-0.64 -0.32,-1.51 0,-0.86 0.32,-1.5 0.32,-0.64 0.88,-0.98 0.57,-0.34 1.29,-0.34 z m 0.35,1 q -0.76,0 -1.22,0.49 -0.45,0.48 -0.45,1.33 0,0.85 0.45,1.34 0.46,0.48 1.22,0.48 0.48,0 0.86,-0.22 0.38,-0.23 0.6,-0.64 0.22,-0.41 0.22,-0.96 0,-0.54 -0.22,-0.95 -0.22,-0.42 -0.6,-0.64 -0.38,-0.23 -0.86,-0.23 z"
       style=""
       id="path4195" />
    <path
       d="m 155.48689,35.052328 0,7.4 -1.14,0 0,-7.4 1.14,0 z"
       style=""
       id="path4197" />
    <path
       d="m 159.05689,36.872328 q 0.75,0 1.28,0.37 0.53,0.37 0.75,0.98 l 0,-1.28 1.14,0 0,5.51 -1.14,0 0,-1.28 q -0.22,0.61 -0.75,0.98 -0.53,0.37 -1.28,0.37 -0.72,0 -1.29,-0.34 -0.56,-0.34 -0.88,-0.98 -0.32,-0.64 -0.32,-1.51 0,-0.86 0.32,-1.5 0.32,-0.64 0.88,-0.98 0.57,-0.34 1.29,-0.34 z m 0.35,1 q -0.76,0 -1.22,0.49 -0.45,0.48 -0.45,1.33 0,0.85 0.45,1.34 0.46,0.48 1.22,0.48 0.48,0 0.86,-0.22 0.38,-0.23 0.6,-0.64 0.22,-0.41 0.22,-0.96 0,-0.54 -0.22,-0.95 -0.22,-0.42 -0.6,-0.64 -0.38,-0.23 -0.86,-0.23 z"
       style=""
       id="path4199" />
    <path
       d="m 165.78846,35.342328 q 0,-0.29 0.2,-0.48 0.2,-0.19 0.53,-0.19 0.33,0 0.53,0.19 0.21,0.19 0.21,0.48 0,0.29 -0.21,0.47 -0.2,0.18 -0.53,0.18 -0.33,0 -0.53,-0.18 -0.2,-0.18 -0.2,-0.47 z m 1.3,1.6 0,5.51 -1.14,0 0,-5.51 1.14,0 z"
       style=""
       id="path4201" />
    <path
       d="m 171.54799,36.852328 q 0.96,0 1.54,0.62 0.58,0.62 0.58,1.77 l 0,3.21 -1.14,0 0,-3.09 q 0,-0.74 -0.38,-1.14 -0.38,-0.41 -1.04,-0.41 -0.68,0 -1.09,0.44 -0.41,0.43 -0.41,1.27 l 0,2.93 -1.14,0 0,-5.51 1.14,0 0,1.21 q 0.22,-0.62 0.74,-0.96 0.52,-0.34 1.2,-0.34 z"
       style=""
       id="path4203" />
    <path
       d="m 177.56143,35.802328 q -0.67,-0.03 -0.94,0.22 -0.27,0.24 -0.27,0.83 l 0,0.09 1.21,0 0,0.98 -1.21,0 0,4.53 -1.15,0 0,-4.53 -0.75,0 0,-0.98 0.75,0 0,-0.18 q 0,-1.01 0.59,-1.51 0.59,-0.51 1.77,-0.45 l 0,1 z"
       style=""
       id="path4205" />
    <path
       d="m 179.62752,35.052328 0,7.4 -1.14,0 0,-7.4 1.14,0 z"
       style=""
       id="path4207" />
    <path
       d="m 181.63752,36.942328 1.65,4.05 1.53,-4.05 1.27,0 -3.33,8.13 -1.27,0 1.19,-2.75 -2.32,-5.38 1.28,0 z"
       style=""
       id="path4209" />
    <path
       d="m 189.61689,41.462328 0,0.99 -0.7,0 q -0.88,0 -1.34,-0.42 -0.45,-0.43 -0.45,-1.42 l 0,-2.7 -0.79,0 0,-0.97 0.79,0 0,-1.37 1.15,0 0,1.37 1.33,0 0,0.97 -1.33,0 0,2.72 q 0,0.47 0.17,0.65 0.18,0.18 0.62,0.18 l 0.55,0 z"
       style=""
       id="path4211" />
    <path
       d="m 193.44502,41.462328 0,0.99 -0.7,0 q -0.88,0 -1.34,-0.42 -0.45,-0.43 -0.45,-1.42 l 0,-2.7 -0.79,0 0,-0.97 0.79,0 0,-1.37 1.15,0 0,1.37 1.33,0 0,0.97 -1.33,0 0,2.72 q 0,0.47 0.17,0.65 0.18,0.18 0.62,0.18 l 0.55,0 z"
       style=""
       id="path4213" />
    <path
       d="m 197.58314,36.852328 q 0.96,0 1.54,0.62 0.58,0.62 0.58,1.77 l 0,3.21 -1.14,0 0,-3.09 q 0,-0.74 -0.38,-1.14 -0.38,-0.41 -1.04,-0.41 -0.68,0 -1.09,0.44 -0.41,0.43 -0.41,1.27 l 0,2.93 -1.14,0 0,-5.51 1.14,0 0,1.21 q 0.22,-0.62 0.74,-0.96 0.52,-0.34 1.2,-0.34 z"
       style=""
       id="path4215" />
    <path
       d="m 200.86658,35.342328 q 0,-0.29 0.2,-0.48 0.2,-0.19 0.53,-0.19 0.33,0 0.53,0.19 0.21,0.19 0.21,0.48 0,0.29 -0.21,0.47 -0.2,0.18 -0.53,0.18 -0.33,0 -0.53,-0.18 -0.2,-0.18 -0.2,-0.47 z m 1.3,1.6 0,5.51 -1.14,0 0,-5.51 1.14,0 z"
       style=""
       id="path4217" />
    <path
       d="m 206.62611,36.852328 q 0.96,0 1.54,0.62 0.58,0.62 0.58,1.77 l 0,3.21 -1.14,0 0,-3.09 q 0,-0.74 -0.38,-1.14 -0.38,-0.41 -1.04,-0.41 -0.68,0 -1.09,0.44 -0.41,0.43 -0.41,1.27 l 0,2.93 -1.14,0 0,-5.51 1.14,0 0,1.21 q 0.22,-0.62 0.74,-0.96 0.52,-0.34 1.2,-0.34 z"
       style=""
       id="path4219" />
    <path
       d="m 212.27955,36.872328 q 0.75,0 1.28,0.37 0.53,0.37 0.75,0.98 l 0,-1.28 1.14,0 0,5.57 q 0,0.77 -0.32,1.36 -0.31,0.6 -0.9,0.94 -0.59,0.34 -1.4,0.34 -1.16,0 -1.88,-0.55 -0.71,-0.55 -0.89,-1.49 l 1.13,0 q 0.14,0.49 0.54,0.76 0.4,0.28 1.02,0.28 0.68,0 1.12,-0.42 0.44,-0.42 0.44,-1.22 l 0,-1.34 q -0.22,0.61 -0.75,0.98 -0.53,0.37 -1.28,0.37 -0.72,0 -1.29,-0.34 -0.56,-0.34 -0.88,-0.98 -0.32,-0.64 -0.32,-1.51 0,-0.86 0.32,-1.5 0.32,-0.64 0.88,-0.98 0.57,-0.34 1.29,-0.34 z m 0.35,1 q -0.76,0 -1.22,0.49 -0.45,0.48 -0.45,1.33 0,0.85 0.45,1.34 0.46,0.48 1.22,0.48 0.48,0 0.86,-0.22 0.38,-0.23 0.6,-0.64 0.22,-0.41 0.22,-0.96 0,-0.54 -0.22,-0.95 -0.22,-0.42 -0.6,-0.64 -0.38,-0.23 -0.86,-0.23 z"
       style=""
       id="path4221" />
    <path
       d="m 218.63736,36.872328 q 0.97,0 1.55,0.5 0.59,0.49 0.72,1.32 l -1.08,0 q -0.07,-0.45 -0.39,-0.72 -0.31,-0.28 -0.83,-0.28 -0.43,0 -0.67,0.21 -0.23,0.2 -0.23,0.55 0,0.26 0.17,0.42 0.17,0.16 0.42,0.25 0.26,0.09 0.73,0.2 0.62,0.14 1,0.29 0.39,0.15 0.66,0.48 0.28,0.32 0.28,0.88 0,0.69 -0.53,1.12 -0.52,0.43 -1.41,0.43 -1.03,0 -1.67,-0.48 -0.63,-0.48 -0.76,-1.34 l 1.11,0 q 0.05,0.45 0.4,0.73 0.35,0.28 0.92,0.28 0.41,0 0.64,-0.21 0.24,-0.22 0.24,-0.55 0,-0.29 -0.18,-0.46 -0.18,-0.17 -0.45,-0.26 -0.27,-0.1 -0.74,-0.2 -0.6,-0.14 -0.98,-0.28 -0.37,-0.14 -0.64,-0.45 -0.26,-0.32 -0.26,-0.86 0,-0.7 0.52,-1.13 0.53,-0.44 1.46,-0.44 z"
       style=""
       id="path4223" />
    <path
       d="m 224.33033,36.872328 q 0.75,0 1.28,0.37 0.53,0.37 0.75,0.98 l 0,-1.28 1.14,0 0,5.57 q 0,0.77 -0.32,1.36 -0.31,0.6 -0.9,0.94 -0.59,0.34 -1.4,0.34 -1.16,0 -1.88,-0.55 -0.71,-0.55 -0.89,-1.49 l 1.13,0 q 0.14,0.49 0.54,0.76 0.4,0.28 1.02,0.28 0.68,0 1.12,-0.42 0.44,-0.42 0.44,-1.22 l 0,-1.34 q -0.22,0.61 -0.75,0.98 -0.53,0.37 -1.28,0.37 -0.72,0 -1.29,-0.34 -0.56,-0.34 -0.88,-0.98 -0.32,-0.64 -0.32,-1.51 0,-0.86 0.32,-1.5 0.32,-0.64 0.88,-0.98 0.57,-0.34 1.29,-0.34 z m 0.35,1 q -0.76,0 -1.22,0.49 -0.45,0.48 -0.45,1.33 0,0.85 0.45,1.34 0.46,0.48 1.22,0.48 0.48,0 0.86,-0.22 0.38,-0.23 0.6,-0.64 0.22,-0.41 0.22,-0.96 0,-0.54 -0.22,-0.95 -0.22,-0.42 -0.6,-0.64 -0.38,-0.23 -0.86,-0.23 z"
       style=""
       id="path4225" />
    <path
       d="m 233.95814,36.942328 0,5.51 -1.15,0 0,-1.2 q -0.21,0.61 -0.73,0.95 -0.52,0.33 -1.21,0.33 -0.96,0 -1.54,-0.62 -0.58,-0.62 -0.58,-1.77 l 0,-3.2 1.14,0 0,3.08 q 0,0.75 0.38,1.16 0.38,0.4 1.04,0.4 0.68,0 1.09,-0.44 0.41,-0.44 0.41,-1.28 l 0,-2.92 1.15,0 z"
       style=""
       id="path4227" />
    <path
       d="m 235.18299,35.342328 q 0,-0.29 0.2,-0.48 0.2,-0.19 0.53,-0.19 0.33,0 0.53,0.19 0.21,0.19 0.21,0.48 0,0.29 -0.21,0.47 -0.2,0.18 -0.53,0.18 -0.33,0 -0.53,-0.18 -0.2,-0.18 -0.2,-0.47 z m 1.3,1.6 0,5.51 -1.14,0 0,-5.51 1.14,0 z"
       style=""
       id="path4229" />
    <path
       d="m 240.07252,36.872328 q 0.75,0 1.28,0.37 0.53,0.37 0.74,0.98 l 0,-3.17 1.15,0 0,7.4 -1.15,0 0,-1.28 q -0.21,0.61 -0.74,0.98 -0.53,0.37 -1.28,0.37 -0.72,0 -1.29,-0.34 -0.56,-0.34 -0.88,-0.98 -0.32,-0.64 -0.32,-1.51 0,-0.86 0.32,-1.5 0.32,-0.64 0.88,-0.98 0.57,-0.34 1.29,-0.34 z m 0.35,1 q -0.76,0 -1.22,0.49 -0.45,0.48 -0.45,1.33 0,0.85 0.45,1.34 0.46,0.48 1.22,0.48 0.48,0 0.86,-0.22 0.38,-0.23 0.6,-0.64 0.22,-0.41 0.22,-0.96 0,-0.54 -0.22,-0.95 -0.22,-0.42 -0.6,-0.64 -0.38,-0.23 -0.86,-0.23 z"
       style=""
       id="path4231" />
    <path
       d="m 249.74033,39.432328 q 0,0.28 -0.04,0.49 l -4.24,0 q 0.03,0.85 0.47,1.26 0.44,0.41 1.09,0.41 0.57,0 0.96,-0.29 0.4,-0.29 0.49,-0.77 l 1.22,0 q -0.11,0.58 -0.46,1.03 -0.35,0.45 -0.91,0.71 -0.56,0.25 -1.25,0.25 -0.8,0 -1.42,-0.34 -0.61,-0.34 -0.96,-0.98 -0.35,-0.64 -0.35,-1.51 0,-0.86 0.35,-1.5 0.35,-0.64 0.96,-0.98 0.62,-0.34 1.42,-0.34 0.81,0 1.41,0.34 0.61,0.33 0.93,0.92 0.33,0.58 0.33,1.3 z m -1.15,-0.03 q 0.02,-0.54 -0.19,-0.9 -0.2,-0.37 -0.56,-0.54 -0.35,-0.18 -0.77,-0.18 -0.67,0 -1.12,0.41 -0.45,0.41 -0.49,1.21 l 3.13,0 z"
       style=""
       id="path4233" />
  </g>
</svg>
